%TF.GenerationSoftware,KiCad,Pcbnew,(6.0.7)*%
%TF.CreationDate,2022-10-09T14:23:20+03:00*%
%TF.ProjectId,mc34063-step-down,6d633334-3036-4332-9d73-7465702d646f,rev?*%
%TF.SameCoordinates,Original*%
%TF.FileFunction,Copper,L2,Bot*%
%TF.FilePolarity,Positive*%
%FSLAX46Y46*%
G04 Gerber Fmt 4.6, Leading zero omitted, Abs format (unit mm)*
G04 Created by KiCad (PCBNEW (6.0.7)) date 2022-10-09 14:23:20*
%MOMM*%
%LPD*%
G01*
G04 APERTURE LIST*
G04 Aperture macros list*
%AMRoundRect*
0 Rectangle with rounded corners*
0 $1 Rounding radius*
0 $2 $3 $4 $5 $6 $7 $8 $9 X,Y pos of 4 corners*
0 Add a 4 corners polygon primitive as box body*
4,1,4,$2,$3,$4,$5,$6,$7,$8,$9,$2,$3,0*
0 Add four circle primitives for the rounded corners*
1,1,$1+$1,$2,$3*
1,1,$1+$1,$4,$5*
1,1,$1+$1,$6,$7*
1,1,$1+$1,$8,$9*
0 Add four rect primitives between the rounded corners*
20,1,$1+$1,$2,$3,$4,$5,0*
20,1,$1+$1,$4,$5,$6,$7,0*
20,1,$1+$1,$6,$7,$8,$9,0*
20,1,$1+$1,$8,$9,$2,$3,0*%
G04 Aperture macros list end*
%TA.AperFunction,ComponentPad*%
%ADD10C,2.000000*%
%TD*%
%TA.AperFunction,ComponentPad*%
%ADD11RoundRect,0.750000X-0.750000X0.750000X-0.750000X-0.750000X0.750000X-0.750000X0.750000X0.750000X0*%
%TD*%
%TA.AperFunction,ViaPad*%
%ADD12C,0.800000*%
%TD*%
%TA.AperFunction,Conductor*%
%ADD13C,0.400000*%
%TD*%
G04 APERTURE END LIST*
D10*
%TO.P,U2,1*%
%TO.N,Net-(D1-Pad1)*%
X94000000Y-61000000D03*
X94000000Y-60000000D03*
%TO.P,U2,2*%
%TO.N,/Vout*%
X94000000Y-64000000D03*
X94000000Y-65000000D03*
%TD*%
D11*
%TO.P,J1,1,Pin_1*%
%TO.N,/In*%
X75500000Y-54960000D03*
%TO.P,J1,2,Pin_2*%
%TO.N,GND*%
X75500000Y-60040000D03*
%TD*%
%TO.P,J2,1,Pin_1*%
%TO.N,/Vout*%
X107500000Y-54960000D03*
%TO.P,J2,2,Pin_2*%
%TO.N,GND*%
X107500000Y-60040000D03*
%TD*%
D12*
%TO.N,GND*%
X109500000Y-51500000D03*
X104500000Y-61500000D03*
X104500000Y-63500000D03*
X102500000Y-66500000D03*
X102500000Y-63500000D03*
X102500000Y-61500000D03*
X98500000Y-47500000D03*
X90500000Y-49500000D03*
X90500000Y-47500000D03*
X78500000Y-47500000D03*
X80500000Y-47500000D03*
X80500000Y-49500000D03*
X78500000Y-49500000D03*
X82500000Y-63500000D03*
X80500000Y-63500000D03*
X80500000Y-66500000D03*
X82500000Y-66500000D03*
X78500000Y-66500000D03*
X78500000Y-63500000D03*
X84500000Y-63500000D03*
X90500000Y-63500000D03*
X90500000Y-61500000D03*
X84500000Y-61500000D03*
X82500000Y-61500000D03*
X80500000Y-61500000D03*
X78500000Y-61500000D03*
X82500000Y-58500000D03*
X80500000Y-58500000D03*
X78500000Y-58500000D03*
%TO.N,/Vfeedback*%
X86750000Y-48350000D03*
X104600000Y-48750000D03*
%TD*%
D13*
%TO.N,/Vfeedback*%
X104050000Y-46000000D02*
X87450000Y-46000000D01*
X87450000Y-46000000D02*
X86750000Y-46700000D01*
X86750000Y-46700000D02*
X86750000Y-48350000D01*
X104600000Y-46550000D02*
X104050000Y-46000000D01*
X104600000Y-48750000D02*
X104600000Y-46550000D01*
%TD*%
%TA.AperFunction,Conductor*%
%TO.N,GND*%
G36*
X86705617Y-45820502D02*
G01*
X86752110Y-45874158D01*
X86762214Y-45944432D01*
X86732720Y-46009012D01*
X86726597Y-46015590D01*
X86584010Y-46158176D01*
X86445717Y-46296469D01*
X86436376Y-46303932D01*
X86436708Y-46304322D01*
X86429872Y-46310140D01*
X86422280Y-46314930D01*
X86416338Y-46321658D01*
X86416337Y-46321659D01*
X86387244Y-46354601D01*
X86381897Y-46360289D01*
X86370680Y-46371506D01*
X86367991Y-46375094D01*
X86367990Y-46375095D01*
X86364550Y-46379684D01*
X86358168Y-46387523D01*
X86327377Y-46422388D01*
X86323563Y-46430511D01*
X86321492Y-46433664D01*
X86313673Y-46446676D01*
X86311856Y-46449995D01*
X86306474Y-46457176D01*
X86303325Y-46465577D01*
X86303324Y-46465578D01*
X86290144Y-46500736D01*
X86286217Y-46510053D01*
X86270263Y-46544034D01*
X86270262Y-46544037D01*
X86266447Y-46552163D01*
X86265065Y-46561037D01*
X86263961Y-46564650D01*
X86260115Y-46579307D01*
X86259301Y-46583010D01*
X86256148Y-46591420D01*
X86252698Y-46637843D01*
X86251548Y-46647856D01*
X86249500Y-46661009D01*
X86249500Y-46676204D01*
X86249154Y-46685541D01*
X86245524Y-46734392D01*
X86247397Y-46743168D01*
X86248008Y-46752125D01*
X86248002Y-46752125D01*
X86249500Y-46766318D01*
X86249500Y-47804288D01*
X86229498Y-47872409D01*
X86225444Y-47877719D01*
X86225604Y-47877831D01*
X86147246Y-47989324D01*
X86128113Y-48016547D01*
X86066524Y-48174513D01*
X86065532Y-48182046D01*
X86065532Y-48182047D01*
X86051615Y-48287764D01*
X86044394Y-48342611D01*
X86062999Y-48511135D01*
X86121266Y-48670356D01*
X86125502Y-48676659D01*
X86125502Y-48676660D01*
X86138574Y-48696113D01*
X86215830Y-48811083D01*
X86221442Y-48816190D01*
X86221445Y-48816193D01*
X86335612Y-48920077D01*
X86335616Y-48920080D01*
X86341233Y-48925191D01*
X86347906Y-48928814D01*
X86347910Y-48928817D01*
X86483558Y-49002467D01*
X86483560Y-49002468D01*
X86490235Y-49006092D01*
X86497584Y-49008020D01*
X86646883Y-49047188D01*
X86646885Y-49047188D01*
X86654233Y-49049116D01*
X86740609Y-49050473D01*
X86816161Y-49051660D01*
X86816164Y-49051660D01*
X86823760Y-49051779D01*
X86831165Y-49050083D01*
X86831166Y-49050083D01*
X86891586Y-49036245D01*
X86989029Y-49013928D01*
X87140498Y-48937747D01*
X87269423Y-48827634D01*
X87368361Y-48689947D01*
X87376237Y-48670356D01*
X87428766Y-48539687D01*
X87428767Y-48539685D01*
X87431601Y-48532634D01*
X87449007Y-48410330D01*
X87454909Y-48368862D01*
X87454909Y-48368859D01*
X87455490Y-48364778D01*
X87455645Y-48350000D01*
X87453840Y-48335080D01*
X87447541Y-48283030D01*
X87435276Y-48181680D01*
X87375345Y-48023077D01*
X87279312Y-47883349D01*
X87279776Y-47883030D01*
X87251941Y-47823438D01*
X87250500Y-47804437D01*
X87250500Y-46959504D01*
X87270502Y-46891383D01*
X87287405Y-46870409D01*
X87620409Y-46537405D01*
X87682721Y-46503379D01*
X87709504Y-46500500D01*
X103790496Y-46500500D01*
X103858617Y-46520502D01*
X103879591Y-46537405D01*
X104062595Y-46720409D01*
X104096621Y-46782721D01*
X104099500Y-46809504D01*
X104099500Y-48204288D01*
X104079498Y-48272409D01*
X104075444Y-48277719D01*
X104075604Y-48277831D01*
X103982662Y-48410075D01*
X103978113Y-48416547D01*
X103916524Y-48574513D01*
X103915532Y-48582046D01*
X103915532Y-48582047D01*
X103901747Y-48686760D01*
X103894394Y-48742611D01*
X103912999Y-48911135D01*
X103928031Y-48952211D01*
X103964468Y-49051779D01*
X103971266Y-49070356D01*
X103975502Y-49076659D01*
X103975502Y-49076660D01*
X103988574Y-49096113D01*
X104065830Y-49211083D01*
X104071442Y-49216190D01*
X104071445Y-49216193D01*
X104185612Y-49320077D01*
X104185616Y-49320080D01*
X104191233Y-49325191D01*
X104197906Y-49328814D01*
X104197910Y-49328817D01*
X104333558Y-49402467D01*
X104333560Y-49402468D01*
X104340235Y-49406092D01*
X104347584Y-49408020D01*
X104496883Y-49447188D01*
X104496885Y-49447188D01*
X104504233Y-49449116D01*
X104590609Y-49450473D01*
X104666161Y-49451660D01*
X104666164Y-49451660D01*
X104673760Y-49451779D01*
X104681165Y-49450083D01*
X104681166Y-49450083D01*
X104741586Y-49436245D01*
X104839029Y-49413928D01*
X104990498Y-49337747D01*
X105069713Y-49270090D01*
X105113651Y-49232564D01*
X105113652Y-49232563D01*
X105119423Y-49227634D01*
X105218361Y-49089947D01*
X105226237Y-49070356D01*
X105237140Y-49043233D01*
X105594906Y-49043233D01*
X105621102Y-49317792D01*
X105622187Y-49322226D01*
X105622188Y-49322232D01*
X105653266Y-49449235D01*
X105686657Y-49585694D01*
X105790199Y-49841326D01*
X105792500Y-49845256D01*
X105792503Y-49845262D01*
X105927255Y-50075403D01*
X105927260Y-50075410D01*
X105929558Y-50079335D01*
X105932405Y-50082895D01*
X106050028Y-50229974D01*
X106101816Y-50294732D01*
X106303364Y-50483008D01*
X106529979Y-50640216D01*
X106534055Y-50642244D01*
X106534057Y-50642245D01*
X106772827Y-50761032D01*
X106772830Y-50761033D01*
X106776914Y-50763065D01*
X107038998Y-50848980D01*
X107043489Y-50849760D01*
X107043490Y-50849760D01*
X107306957Y-50895506D01*
X107306965Y-50895507D01*
X107310738Y-50896162D01*
X107314575Y-50896353D01*
X107396305Y-50900422D01*
X107396313Y-50900422D01*
X107397876Y-50900500D01*
X107570070Y-50900500D01*
X107572338Y-50900335D01*
X107572350Y-50900335D01*
X107706603Y-50890594D01*
X107775083Y-50885625D01*
X107779538Y-50884641D01*
X107779541Y-50884641D01*
X108039947Y-50827148D01*
X108039950Y-50827147D01*
X108044403Y-50826164D01*
X108302319Y-50728449D01*
X108543428Y-50594525D01*
X108762678Y-50427198D01*
X108765873Y-50423930D01*
X108952283Y-50233242D01*
X108952287Y-50233237D01*
X108955477Y-50229974D01*
X109117787Y-50006984D01*
X109246206Y-49762899D01*
X109338045Y-49502832D01*
X109374516Y-49317792D01*
X109390499Y-49236704D01*
X109390500Y-49236698D01*
X109391380Y-49232232D01*
X109398464Y-49089947D01*
X109404867Y-48961336D01*
X109404867Y-48961330D01*
X109405094Y-48956767D01*
X109378898Y-48682208D01*
X109377541Y-48676660D01*
X109314429Y-48418744D01*
X109313343Y-48414306D01*
X109209801Y-48158674D01*
X109207500Y-48154744D01*
X109207497Y-48154738D01*
X109072745Y-47924597D01*
X109072740Y-47924590D01*
X109070442Y-47920665D01*
X108952927Y-47773720D01*
X108901036Y-47708834D01*
X108901035Y-47708833D01*
X108898184Y-47705268D01*
X108696636Y-47516992D01*
X108470021Y-47359784D01*
X108292667Y-47271551D01*
X108227173Y-47238968D01*
X108227170Y-47238967D01*
X108223086Y-47236935D01*
X107961002Y-47151020D01*
X107956510Y-47150240D01*
X107693043Y-47104494D01*
X107693035Y-47104493D01*
X107689262Y-47103838D01*
X107679029Y-47103329D01*
X107603695Y-47099578D01*
X107603687Y-47099578D01*
X107602124Y-47099500D01*
X107429930Y-47099500D01*
X107427662Y-47099665D01*
X107427650Y-47099665D01*
X107293397Y-47109406D01*
X107224917Y-47114375D01*
X107220462Y-47115359D01*
X107220459Y-47115359D01*
X106960053Y-47172852D01*
X106960050Y-47172853D01*
X106955597Y-47173836D01*
X106697681Y-47271551D01*
X106456572Y-47405475D01*
X106237322Y-47572802D01*
X106234129Y-47576068D01*
X106234127Y-47576070D01*
X106047717Y-47766758D01*
X106047713Y-47766763D01*
X106044523Y-47770026D01*
X106041836Y-47773718D01*
X106041834Y-47773720D01*
X105960012Y-47886132D01*
X105882213Y-47993016D01*
X105753794Y-48237101D01*
X105661955Y-48497168D01*
X105661075Y-48501634D01*
X105612932Y-48745892D01*
X105608620Y-48767768D01*
X105608393Y-48772322D01*
X105608393Y-48772324D01*
X105596281Y-49015623D01*
X105594906Y-49043233D01*
X105237140Y-49043233D01*
X105278766Y-48939687D01*
X105278767Y-48939685D01*
X105281601Y-48932634D01*
X105295843Y-48832564D01*
X105304909Y-48768862D01*
X105304909Y-48768859D01*
X105305490Y-48764778D01*
X105305645Y-48750000D01*
X105303840Y-48735080D01*
X105286188Y-48589220D01*
X105285276Y-48581680D01*
X105225345Y-48423077D01*
X105129312Y-48283349D01*
X105129776Y-48283030D01*
X105101941Y-48223438D01*
X105100500Y-48204437D01*
X105100500Y-46620176D01*
X105101828Y-46608296D01*
X105101317Y-46608255D01*
X105102037Y-46599307D01*
X105104018Y-46590552D01*
X105100742Y-46537745D01*
X105100500Y-46529943D01*
X105100500Y-46514060D01*
X105099271Y-46505473D01*
X105099052Y-46503942D01*
X105098022Y-46493891D01*
X105095697Y-46456420D01*
X105095697Y-46456419D01*
X105095141Y-46447461D01*
X105092093Y-46439017D01*
X105091328Y-46435324D01*
X105087653Y-46420584D01*
X105086596Y-46416968D01*
X105085323Y-46408082D01*
X105066067Y-46365730D01*
X105062255Y-46356367D01*
X105046460Y-46312613D01*
X105041162Y-46305361D01*
X105039383Y-46302015D01*
X105031726Y-46288911D01*
X105029697Y-46285739D01*
X105025984Y-46277572D01*
X105020129Y-46270776D01*
X105020127Y-46270774D01*
X104995610Y-46242321D01*
X104989325Y-46234405D01*
X104984352Y-46227598D01*
X104984346Y-46227591D01*
X104981477Y-46223664D01*
X104978040Y-46220227D01*
X104978034Y-46220220D01*
X104970741Y-46212928D01*
X104964383Y-46206081D01*
X104938259Y-46175763D01*
X104932400Y-46168963D01*
X104924866Y-46164079D01*
X104918104Y-46158181D01*
X104918108Y-46158176D01*
X104907014Y-46149200D01*
X104773409Y-46015595D01*
X104739383Y-45953283D01*
X104744448Y-45882468D01*
X104786995Y-45825632D01*
X104853515Y-45800821D01*
X104862504Y-45800500D01*
X111073500Y-45800500D01*
X111141621Y-45820502D01*
X111188114Y-45874158D01*
X111199500Y-45926500D01*
X111199500Y-69073500D01*
X111179498Y-69141621D01*
X111125842Y-69188114D01*
X111073500Y-69199500D01*
X71926500Y-69199500D01*
X71858379Y-69179498D01*
X71811886Y-69125842D01*
X71800500Y-69073500D01*
X71800500Y-66043233D01*
X73594906Y-66043233D01*
X73621102Y-66317792D01*
X73686657Y-66585694D01*
X73790199Y-66841326D01*
X73792500Y-66845256D01*
X73792503Y-66845262D01*
X73927255Y-67075403D01*
X73927260Y-67075410D01*
X73929558Y-67079335D01*
X73932405Y-67082895D01*
X74050028Y-67229974D01*
X74101816Y-67294732D01*
X74303364Y-67483008D01*
X74529979Y-67640216D01*
X74534055Y-67642244D01*
X74534057Y-67642245D01*
X74772827Y-67761032D01*
X74772830Y-67761033D01*
X74776914Y-67763065D01*
X75038998Y-67848980D01*
X75043489Y-67849760D01*
X75043490Y-67849760D01*
X75306957Y-67895506D01*
X75306965Y-67895507D01*
X75310738Y-67896162D01*
X75314575Y-67896353D01*
X75396305Y-67900422D01*
X75396313Y-67900422D01*
X75397876Y-67900500D01*
X75570070Y-67900500D01*
X75572338Y-67900335D01*
X75572350Y-67900335D01*
X75706603Y-67890594D01*
X75775083Y-67885625D01*
X75779538Y-67884641D01*
X75779541Y-67884641D01*
X76039947Y-67827148D01*
X76039950Y-67827147D01*
X76044403Y-67826164D01*
X76302319Y-67728449D01*
X76543428Y-67594525D01*
X76762678Y-67427198D01*
X76765873Y-67423930D01*
X76952283Y-67233242D01*
X76952287Y-67233237D01*
X76955477Y-67229974D01*
X77117787Y-67006984D01*
X77246206Y-66762899D01*
X77338045Y-66502832D01*
X77374516Y-66317792D01*
X77390499Y-66236704D01*
X77390500Y-66236698D01*
X77391380Y-66232232D01*
X77391607Y-66227676D01*
X77404867Y-65961336D01*
X77404867Y-65961330D01*
X77405094Y-65956767D01*
X77378898Y-65682208D01*
X77372789Y-65657239D01*
X77314429Y-65418744D01*
X77313343Y-65414306D01*
X77209801Y-65158674D01*
X77207500Y-65154744D01*
X77207497Y-65154738D01*
X77116895Y-65000000D01*
X92694532Y-65000000D01*
X92714365Y-65226692D01*
X92773261Y-65446496D01*
X92869432Y-65652734D01*
X92999953Y-65839139D01*
X93160861Y-66000047D01*
X93347266Y-66130568D01*
X93352244Y-66132889D01*
X93352247Y-66132891D01*
X93548522Y-66224416D01*
X93553504Y-66226739D01*
X93558812Y-66228161D01*
X93558814Y-66228162D01*
X93767993Y-66284211D01*
X93767995Y-66284211D01*
X93773308Y-66285635D01*
X94000000Y-66305468D01*
X94226692Y-66285635D01*
X94232005Y-66284211D01*
X94232007Y-66284211D01*
X94441186Y-66228162D01*
X94441188Y-66228161D01*
X94446496Y-66226739D01*
X94451478Y-66224416D01*
X94647753Y-66132891D01*
X94647756Y-66132889D01*
X94652734Y-66130568D01*
X94777462Y-66043233D01*
X105594906Y-66043233D01*
X105621102Y-66317792D01*
X105686657Y-66585694D01*
X105790199Y-66841326D01*
X105792500Y-66845256D01*
X105792503Y-66845262D01*
X105927255Y-67075403D01*
X105927260Y-67075410D01*
X105929558Y-67079335D01*
X105932405Y-67082895D01*
X106050028Y-67229974D01*
X106101816Y-67294732D01*
X106303364Y-67483008D01*
X106529979Y-67640216D01*
X106534055Y-67642244D01*
X106534057Y-67642245D01*
X106772827Y-67761032D01*
X106772830Y-67761033D01*
X106776914Y-67763065D01*
X107038998Y-67848980D01*
X107043489Y-67849760D01*
X107043490Y-67849760D01*
X107306957Y-67895506D01*
X107306965Y-67895507D01*
X107310738Y-67896162D01*
X107314575Y-67896353D01*
X107396305Y-67900422D01*
X107396313Y-67900422D01*
X107397876Y-67900500D01*
X107570070Y-67900500D01*
X107572338Y-67900335D01*
X107572350Y-67900335D01*
X107706603Y-67890594D01*
X107775083Y-67885625D01*
X107779538Y-67884641D01*
X107779541Y-67884641D01*
X108039947Y-67827148D01*
X108039950Y-67827147D01*
X108044403Y-67826164D01*
X108302319Y-67728449D01*
X108543428Y-67594525D01*
X108762678Y-67427198D01*
X108765873Y-67423930D01*
X108952283Y-67233242D01*
X108952287Y-67233237D01*
X108955477Y-67229974D01*
X109117787Y-67006984D01*
X109246206Y-66762899D01*
X109338045Y-66502832D01*
X109374516Y-66317792D01*
X109390499Y-66236704D01*
X109390500Y-66236698D01*
X109391380Y-66232232D01*
X109391607Y-66227676D01*
X109404867Y-65961336D01*
X109404867Y-65961330D01*
X109405094Y-65956767D01*
X109378898Y-65682208D01*
X109372789Y-65657239D01*
X109314429Y-65418744D01*
X109313343Y-65414306D01*
X109209801Y-65158674D01*
X109207500Y-65154744D01*
X109207497Y-65154738D01*
X109072745Y-64924597D01*
X109072740Y-64924590D01*
X109070442Y-64920665D01*
X108952597Y-64773308D01*
X108901036Y-64708834D01*
X108901035Y-64708833D01*
X108898184Y-64705268D01*
X108753413Y-64570030D01*
X108699972Y-64520108D01*
X108699969Y-64520106D01*
X108696636Y-64516992D01*
X108470021Y-64359784D01*
X108292667Y-64271551D01*
X108227173Y-64238968D01*
X108227170Y-64238967D01*
X108223086Y-64236935D01*
X107961002Y-64151020D01*
X107956510Y-64150240D01*
X107693043Y-64104494D01*
X107693035Y-64104493D01*
X107689262Y-64103838D01*
X107679029Y-64103329D01*
X107603695Y-64099578D01*
X107603687Y-64099578D01*
X107602124Y-64099500D01*
X107429930Y-64099500D01*
X107427662Y-64099665D01*
X107427650Y-64099665D01*
X107293397Y-64109406D01*
X107224917Y-64114375D01*
X107220462Y-64115359D01*
X107220459Y-64115359D01*
X106960053Y-64172852D01*
X106960050Y-64172853D01*
X106955597Y-64173836D01*
X106697681Y-64271551D01*
X106456572Y-64405475D01*
X106237322Y-64572802D01*
X106234129Y-64576068D01*
X106234127Y-64576070D01*
X106047717Y-64766758D01*
X106047713Y-64766763D01*
X106044523Y-64770026D01*
X105882213Y-64993016D01*
X105753794Y-65237101D01*
X105661955Y-65497168D01*
X105661075Y-65501634D01*
X105624587Y-65686760D01*
X105608620Y-65767768D01*
X105608393Y-65772322D01*
X105608393Y-65772324D01*
X105596899Y-66003206D01*
X105594906Y-66043233D01*
X94777462Y-66043233D01*
X94839139Y-66000047D01*
X95000047Y-65839139D01*
X95130568Y-65652734D01*
X95226739Y-65446496D01*
X95285635Y-65226692D01*
X95305468Y-65000000D01*
X95285635Y-64773308D01*
X95226739Y-64553504D01*
X95224412Y-64548515D01*
X95222533Y-64543351D01*
X95224988Y-64542457D01*
X95215954Y-64483095D01*
X95223605Y-64457039D01*
X95222533Y-64456649D01*
X95224412Y-64451485D01*
X95226739Y-64446496D01*
X95282346Y-64238968D01*
X95284211Y-64232007D01*
X95284211Y-64232005D01*
X95285635Y-64226692D01*
X95305468Y-64000000D01*
X95285635Y-63773308D01*
X95226739Y-63553504D01*
X95130568Y-63347266D01*
X95000047Y-63160861D01*
X94839139Y-62999953D01*
X94652734Y-62869432D01*
X94647756Y-62867111D01*
X94647753Y-62867109D01*
X94451478Y-62775584D01*
X94451476Y-62775583D01*
X94446496Y-62773261D01*
X94441188Y-62771839D01*
X94441186Y-62771838D01*
X94232007Y-62715789D01*
X94232005Y-62715789D01*
X94226692Y-62714365D01*
X94000000Y-62694532D01*
X93773308Y-62714365D01*
X93767995Y-62715789D01*
X93767993Y-62715789D01*
X93558814Y-62771838D01*
X93558812Y-62771839D01*
X93553504Y-62773261D01*
X93548524Y-62775583D01*
X93548522Y-62775584D01*
X93352247Y-62867109D01*
X93352244Y-62867111D01*
X93347266Y-62869432D01*
X93160861Y-62999953D01*
X92999953Y-63160861D01*
X92869432Y-63347266D01*
X92773261Y-63553504D01*
X92714365Y-63773308D01*
X92694532Y-64000000D01*
X92714365Y-64226692D01*
X92715789Y-64232005D01*
X92715789Y-64232007D01*
X92717654Y-64238968D01*
X92773261Y-64446496D01*
X92775588Y-64451485D01*
X92777467Y-64456649D01*
X92775012Y-64457543D01*
X92784046Y-64516905D01*
X92776395Y-64542961D01*
X92777467Y-64543351D01*
X92775588Y-64548515D01*
X92773261Y-64553504D01*
X92714365Y-64773308D01*
X92694532Y-65000000D01*
X77116895Y-65000000D01*
X77072745Y-64924597D01*
X77072740Y-64924590D01*
X77070442Y-64920665D01*
X76952597Y-64773308D01*
X76901036Y-64708834D01*
X76901035Y-64708833D01*
X76898184Y-64705268D01*
X76753413Y-64570030D01*
X76699972Y-64520108D01*
X76699969Y-64520106D01*
X76696636Y-64516992D01*
X76470021Y-64359784D01*
X76292667Y-64271551D01*
X76227173Y-64238968D01*
X76227170Y-64238967D01*
X76223086Y-64236935D01*
X75961002Y-64151020D01*
X75956510Y-64150240D01*
X75693043Y-64104494D01*
X75693035Y-64104493D01*
X75689262Y-64103838D01*
X75679029Y-64103329D01*
X75603695Y-64099578D01*
X75603687Y-64099578D01*
X75602124Y-64099500D01*
X75429930Y-64099500D01*
X75427662Y-64099665D01*
X75427650Y-64099665D01*
X75293397Y-64109406D01*
X75224917Y-64114375D01*
X75220462Y-64115359D01*
X75220459Y-64115359D01*
X74960053Y-64172852D01*
X74960050Y-64172853D01*
X74955597Y-64173836D01*
X74697681Y-64271551D01*
X74456572Y-64405475D01*
X74237322Y-64572802D01*
X74234129Y-64576068D01*
X74234127Y-64576070D01*
X74047717Y-64766758D01*
X74047713Y-64766763D01*
X74044523Y-64770026D01*
X73882213Y-64993016D01*
X73753794Y-65237101D01*
X73661955Y-65497168D01*
X73661075Y-65501634D01*
X73624587Y-65686760D01*
X73608620Y-65767768D01*
X73608393Y-65772322D01*
X73608393Y-65772324D01*
X73596899Y-66003206D01*
X73594906Y-66043233D01*
X71800500Y-66043233D01*
X71800500Y-61000000D01*
X92694532Y-61000000D01*
X92714365Y-61226692D01*
X92773261Y-61446496D01*
X92869432Y-61652734D01*
X92999953Y-61839139D01*
X93160861Y-62000047D01*
X93347266Y-62130568D01*
X93352244Y-62132889D01*
X93352247Y-62132891D01*
X93548522Y-62224416D01*
X93553504Y-62226739D01*
X93558812Y-62228161D01*
X93558814Y-62228162D01*
X93767993Y-62284211D01*
X93767995Y-62284211D01*
X93773308Y-62285635D01*
X94000000Y-62305468D01*
X94226692Y-62285635D01*
X94232005Y-62284211D01*
X94232007Y-62284211D01*
X94441186Y-62228162D01*
X94441188Y-62228161D01*
X94446496Y-62226739D01*
X94451478Y-62224416D01*
X94647753Y-62132891D01*
X94647756Y-62132889D01*
X94652734Y-62130568D01*
X94839139Y-62000047D01*
X95000047Y-61839139D01*
X95130568Y-61652734D01*
X95226739Y-61446496D01*
X95285635Y-61226692D01*
X95305468Y-61000000D01*
X95285635Y-60773308D01*
X95226739Y-60553504D01*
X95224412Y-60548515D01*
X95222533Y-60543351D01*
X95224988Y-60542457D01*
X95215954Y-60483095D01*
X95223605Y-60457039D01*
X95222533Y-60456649D01*
X95224412Y-60451485D01*
X95226739Y-60446496D01*
X95285635Y-60226692D01*
X95305468Y-60000000D01*
X95285635Y-59773308D01*
X95226739Y-59553504D01*
X95130568Y-59347266D01*
X95000047Y-59160861D01*
X94839139Y-58999953D01*
X94652734Y-58869432D01*
X94647756Y-58867111D01*
X94647753Y-58867109D01*
X94451478Y-58775584D01*
X94451476Y-58775583D01*
X94446496Y-58773261D01*
X94441188Y-58771839D01*
X94441186Y-58771838D01*
X94232007Y-58715789D01*
X94232005Y-58715789D01*
X94226692Y-58714365D01*
X94000000Y-58694532D01*
X93773308Y-58714365D01*
X93767995Y-58715789D01*
X93767993Y-58715789D01*
X93558814Y-58771838D01*
X93558812Y-58771839D01*
X93553504Y-58773261D01*
X93548524Y-58775583D01*
X93548522Y-58775584D01*
X93352247Y-58867109D01*
X93352244Y-58867111D01*
X93347266Y-58869432D01*
X93160861Y-58999953D01*
X92999953Y-59160861D01*
X92869432Y-59347266D01*
X92773261Y-59553504D01*
X92714365Y-59773308D01*
X92694532Y-60000000D01*
X92714365Y-60226692D01*
X92773261Y-60446496D01*
X92775588Y-60451485D01*
X92777467Y-60456649D01*
X92775012Y-60457543D01*
X92784046Y-60516905D01*
X92776395Y-60542961D01*
X92777467Y-60543351D01*
X92775588Y-60548515D01*
X92773261Y-60553504D01*
X92714365Y-60773308D01*
X92694532Y-61000000D01*
X71800500Y-61000000D01*
X71800500Y-54109663D01*
X73699500Y-54109663D01*
X73699501Y-55810336D01*
X73699821Y-55816673D01*
X73740541Y-56018623D01*
X73819711Y-56208817D01*
X73934316Y-56380011D01*
X74079989Y-56525684D01*
X74251183Y-56640289D01*
X74441377Y-56719459D01*
X74643327Y-56760179D01*
X74647993Y-56760415D01*
X74647998Y-56760416D01*
X74648075Y-56760420D01*
X74648093Y-56760420D01*
X74649663Y-56760500D01*
X74651260Y-56760500D01*
X75504012Y-56760499D01*
X76350336Y-56760499D01*
X76351892Y-56760420D01*
X76351909Y-56760420D01*
X76352003Y-56760415D01*
X76352005Y-56760415D01*
X76356673Y-56760179D01*
X76558623Y-56719459D01*
X76748817Y-56640289D01*
X76920011Y-56525684D01*
X77065684Y-56380011D01*
X77180289Y-56208817D01*
X77259459Y-56018623D01*
X77300179Y-55816673D01*
X77300500Y-55810337D01*
X77300499Y-54109664D01*
X77300499Y-54109663D01*
X105699500Y-54109663D01*
X105699501Y-55810336D01*
X105699821Y-55816673D01*
X105740541Y-56018623D01*
X105819711Y-56208817D01*
X105934316Y-56380011D01*
X106079989Y-56525684D01*
X106251183Y-56640289D01*
X106441377Y-56719459D01*
X106643327Y-56760179D01*
X106647993Y-56760415D01*
X106647998Y-56760416D01*
X106648075Y-56760420D01*
X106648093Y-56760420D01*
X106649663Y-56760500D01*
X106651260Y-56760500D01*
X107504012Y-56760499D01*
X108350336Y-56760499D01*
X108351892Y-56760420D01*
X108351909Y-56760420D01*
X108352003Y-56760415D01*
X108352005Y-56760415D01*
X108356673Y-56760179D01*
X108558623Y-56719459D01*
X108748817Y-56640289D01*
X108920011Y-56525684D01*
X109065684Y-56380011D01*
X109180289Y-56208817D01*
X109259459Y-56018623D01*
X109300179Y-55816673D01*
X109300500Y-55810337D01*
X109300499Y-54109664D01*
X109300179Y-54103327D01*
X109259459Y-53901377D01*
X109180289Y-53711183D01*
X109065684Y-53539989D01*
X108920011Y-53394316D01*
X108748817Y-53279711D01*
X108558623Y-53200541D01*
X108356673Y-53159821D01*
X108352007Y-53159585D01*
X108352002Y-53159584D01*
X108351925Y-53159580D01*
X108351907Y-53159580D01*
X108350337Y-53159500D01*
X108348740Y-53159500D01*
X107495988Y-53159501D01*
X106649664Y-53159501D01*
X106648108Y-53159580D01*
X106648091Y-53159580D01*
X106647997Y-53159585D01*
X106647995Y-53159585D01*
X106643327Y-53159821D01*
X106441377Y-53200541D01*
X106251183Y-53279711D01*
X106079989Y-53394316D01*
X105934316Y-53539989D01*
X105819711Y-53711183D01*
X105740541Y-53901377D01*
X105699821Y-54103327D01*
X105699500Y-54109663D01*
X77300499Y-54109663D01*
X77300179Y-54103327D01*
X77259459Y-53901377D01*
X77180289Y-53711183D01*
X77065684Y-53539989D01*
X76920011Y-53394316D01*
X76748817Y-53279711D01*
X76558623Y-53200541D01*
X76356673Y-53159821D01*
X76352007Y-53159585D01*
X76352002Y-53159584D01*
X76351925Y-53159580D01*
X76351907Y-53159580D01*
X76350337Y-53159500D01*
X76348740Y-53159500D01*
X75495988Y-53159501D01*
X74649664Y-53159501D01*
X74648108Y-53159580D01*
X74648091Y-53159580D01*
X74647997Y-53159585D01*
X74647995Y-53159585D01*
X74643327Y-53159821D01*
X74441377Y-53200541D01*
X74251183Y-53279711D01*
X74079989Y-53394316D01*
X73934316Y-53539989D01*
X73819711Y-53711183D01*
X73740541Y-53901377D01*
X73699821Y-54103327D01*
X73699500Y-54109663D01*
X71800500Y-54109663D01*
X71800500Y-49043233D01*
X73594906Y-49043233D01*
X73621102Y-49317792D01*
X73622187Y-49322226D01*
X73622188Y-49322232D01*
X73653266Y-49449235D01*
X73686657Y-49585694D01*
X73790199Y-49841326D01*
X73792500Y-49845256D01*
X73792503Y-49845262D01*
X73927255Y-50075403D01*
X73927260Y-50075410D01*
X73929558Y-50079335D01*
X73932405Y-50082895D01*
X74050028Y-50229974D01*
X74101816Y-50294732D01*
X74303364Y-50483008D01*
X74529979Y-50640216D01*
X74534055Y-50642244D01*
X74534057Y-50642245D01*
X74772827Y-50761032D01*
X74772830Y-50761033D01*
X74776914Y-50763065D01*
X75038998Y-50848980D01*
X75043489Y-50849760D01*
X75043490Y-50849760D01*
X75306957Y-50895506D01*
X75306965Y-50895507D01*
X75310738Y-50896162D01*
X75314575Y-50896353D01*
X75396305Y-50900422D01*
X75396313Y-50900422D01*
X75397876Y-50900500D01*
X75570070Y-50900500D01*
X75572338Y-50900335D01*
X75572350Y-50900335D01*
X75706603Y-50890594D01*
X75775083Y-50885625D01*
X75779538Y-50884641D01*
X75779541Y-50884641D01*
X76039947Y-50827148D01*
X76039950Y-50827147D01*
X76044403Y-50826164D01*
X76302319Y-50728449D01*
X76543428Y-50594525D01*
X76762678Y-50427198D01*
X76765873Y-50423930D01*
X76952283Y-50233242D01*
X76952287Y-50233237D01*
X76955477Y-50229974D01*
X77117787Y-50006984D01*
X77246206Y-49762899D01*
X77338045Y-49502832D01*
X77374516Y-49317792D01*
X77390499Y-49236704D01*
X77390500Y-49236698D01*
X77391380Y-49232232D01*
X77398464Y-49089947D01*
X77404867Y-48961336D01*
X77404867Y-48961330D01*
X77405094Y-48956767D01*
X77378898Y-48682208D01*
X77377541Y-48676660D01*
X77314429Y-48418744D01*
X77313343Y-48414306D01*
X77209801Y-48158674D01*
X77207500Y-48154744D01*
X77207497Y-48154738D01*
X77072745Y-47924597D01*
X77072740Y-47924590D01*
X77070442Y-47920665D01*
X76952927Y-47773720D01*
X76901036Y-47708834D01*
X76901035Y-47708833D01*
X76898184Y-47705268D01*
X76696636Y-47516992D01*
X76470021Y-47359784D01*
X76292667Y-47271551D01*
X76227173Y-47238968D01*
X76227170Y-47238967D01*
X76223086Y-47236935D01*
X75961002Y-47151020D01*
X75956510Y-47150240D01*
X75693043Y-47104494D01*
X75693035Y-47104493D01*
X75689262Y-47103838D01*
X75679029Y-47103329D01*
X75603695Y-47099578D01*
X75603687Y-47099578D01*
X75602124Y-47099500D01*
X75429930Y-47099500D01*
X75427662Y-47099665D01*
X75427650Y-47099665D01*
X75293397Y-47109406D01*
X75224917Y-47114375D01*
X75220462Y-47115359D01*
X75220459Y-47115359D01*
X74960053Y-47172852D01*
X74960050Y-47172853D01*
X74955597Y-47173836D01*
X74697681Y-47271551D01*
X74456572Y-47405475D01*
X74237322Y-47572802D01*
X74234129Y-47576068D01*
X74234127Y-47576070D01*
X74047717Y-47766758D01*
X74047713Y-47766763D01*
X74044523Y-47770026D01*
X74041836Y-47773718D01*
X74041834Y-47773720D01*
X73960012Y-47886132D01*
X73882213Y-47993016D01*
X73753794Y-48237101D01*
X73661955Y-48497168D01*
X73661075Y-48501634D01*
X73612932Y-48745892D01*
X73608620Y-48767768D01*
X73608393Y-48772322D01*
X73608393Y-48772324D01*
X73596281Y-49015623D01*
X73594906Y-49043233D01*
X71800500Y-49043233D01*
X71800500Y-45926500D01*
X71820502Y-45858379D01*
X71874158Y-45811886D01*
X71926500Y-45800500D01*
X86637496Y-45800500D01*
X86705617Y-45820502D01*
G37*
%TD.AperFunction*%
%TD*%
M02*
