M48
; DRILL file {KiCad (6.0.7)} date Sun Oct  9 14:23:36 2022
; FORMAT={-:-/ absolute / metric / decimal}
; #@! TF.CreationDate,2022-10-09T14:23:36+03:00
; #@! TF.GenerationSoftware,Kicad,Pcbnew,(6.0.7)
; #@! TF.FileFunction,MixedPlating,1,2
FMAT,2
METRIC
; #@! TA.AperFunction,Plated,PTH,ViaDrill
T1C0.400
; #@! TA.AperFunction,Plated,PTH,ComponentDrill
T2C0.700
; #@! TA.AperFunction,Plated,PTH,ComponentDrill
T3C1.520
; #@! TA.AperFunction,NonPlated,NPTH,ComponentDrill
T4C3.200
%
G90
G05
T1
X78.5Y-47.5
X78.5Y-49.5
X78.5Y-58.5
X78.5Y-61.5
X78.5Y-63.5
X78.5Y-66.5
X80.5Y-47.5
X80.5Y-49.5
X80.5Y-58.5
X80.5Y-61.5
X80.5Y-63.5
X80.5Y-66.5
X82.5Y-58.5
X82.5Y-61.5
X82.5Y-63.5
X82.5Y-66.5
X84.5Y-61.5
X84.5Y-63.5
X86.75Y-48.35
X90.5Y-47.5
X90.5Y-49.5
X90.5Y-61.5
X90.5Y-63.5
X98.5Y-47.5
X102.5Y-61.5
X102.5Y-63.5
X102.5Y-66.5
X104.5Y-61.5
X104.5Y-63.5
X104.6Y-48.75
X109.5Y-51.5
T2
X94.0Y-60.0
X94.0Y-61.0
X94.0Y-64.0
X94.0Y-65.0
T3
X75.5Y-54.96
X75.5Y-60.04
X107.5Y-54.96
X107.5Y-60.04
T4
X75.5Y-49.0
X75.5Y-66.0
X107.5Y-49.0
X107.5Y-66.0
T0
M30
