%TF.GenerationSoftware,KiCad,Pcbnew,(6.0.7)*%
%TF.CreationDate,2022-10-09T14:23:20+03:00*%
%TF.ProjectId,mc34063-step-down,6d633334-3036-4332-9d73-7465702d646f,rev?*%
%TF.SameCoordinates,Original*%
%TF.FileFunction,Copper,L1,Top*%
%TF.FilePolarity,Positive*%
%FSLAX46Y46*%
G04 Gerber Fmt 4.6, Leading zero omitted, Abs format (unit mm)*
G04 Created by KiCad (PCBNEW (6.0.7)) date 2022-10-09 14:23:20*
%MOMM*%
%LPD*%
G01*
G04 APERTURE LIST*
G04 Aperture macros list*
%AMRoundRect*
0 Rectangle with rounded corners*
0 $1 Rounding radius*
0 $2 $3 $4 $5 $6 $7 $8 $9 X,Y pos of 4 corners*
0 Add a 4 corners polygon primitive as box body*
4,1,4,$2,$3,$4,$5,$6,$7,$8,$9,$2,$3,0*
0 Add four circle primitives for the rounded corners*
1,1,$1+$1,$2,$3*
1,1,$1+$1,$4,$5*
1,1,$1+$1,$6,$7*
1,1,$1+$1,$8,$9*
0 Add four rect primitives between the rounded corners*
20,1,$1+$1,$2,$3,$4,$5,0*
20,1,$1+$1,$4,$5,$6,$7,0*
20,1,$1+$1,$6,$7,$8,$9,0*
20,1,$1+$1,$8,$9,$2,$3,0*%
G04 Aperture macros list end*
%TA.AperFunction,SMDPad,CuDef*%
%ADD10R,1.200000X0.900000*%
%TD*%
%TA.AperFunction,SMDPad,CuDef*%
%ADD11RoundRect,0.250000X-0.350000X-0.450000X0.350000X-0.450000X0.350000X0.450000X-0.350000X0.450000X0*%
%TD*%
%TA.AperFunction,SMDPad,CuDef*%
%ADD12RoundRect,0.250000X0.550000X-1.500000X0.550000X1.500000X-0.550000X1.500000X-0.550000X-1.500000X0*%
%TD*%
%TA.AperFunction,SMDPad,CuDef*%
%ADD13R,5.400000X2.900000*%
%TD*%
%TA.AperFunction,ComponentPad*%
%ADD14C,2.000000*%
%TD*%
%TA.AperFunction,ComponentPad*%
%ADD15RoundRect,0.750000X-0.750000X0.750000X-0.750000X-0.750000X0.750000X-0.750000X0.750000X0.750000X0*%
%TD*%
%TA.AperFunction,SMDPad,CuDef*%
%ADD16RoundRect,0.250000X-0.550000X1.500000X-0.550000X-1.500000X0.550000X-1.500000X0.550000X1.500000X0*%
%TD*%
%TA.AperFunction,SMDPad,CuDef*%
%ADD17RoundRect,0.250000X0.475000X-0.337500X0.475000X0.337500X-0.475000X0.337500X-0.475000X-0.337500X0*%
%TD*%
%TA.AperFunction,SMDPad,CuDef*%
%ADD18RoundRect,0.250000X-0.412500X-0.650000X0.412500X-0.650000X0.412500X0.650000X-0.412500X0.650000X0*%
%TD*%
%TA.AperFunction,SMDPad,CuDef*%
%ADD19RoundRect,0.150000X0.825000X0.150000X-0.825000X0.150000X-0.825000X-0.150000X0.825000X-0.150000X0*%
%TD*%
%TA.AperFunction,SMDPad,CuDef*%
%ADD20RoundRect,0.250000X0.350000X0.450000X-0.350000X0.450000X-0.350000X-0.450000X0.350000X-0.450000X0*%
%TD*%
%TA.AperFunction,ViaPad*%
%ADD21C,0.800000*%
%TD*%
%TA.AperFunction,Conductor*%
%ADD22C,0.400000*%
%TD*%
%TA.AperFunction,Conductor*%
%ADD23C,0.500000*%
%TD*%
G04 APERTURE END LIST*
D10*
%TO.P,D1,1,K*%
%TO.N,Net-(D1-Pad1)*%
X98750000Y-52150000D03*
%TO.P,D1,2,A*%
%TO.N,GND*%
X98750000Y-48850000D03*
%TD*%
D11*
%TO.P,RSC1,1*%
%TO.N,/In*%
X88250000Y-54250000D03*
%TO.P,RSC1,2*%
%TO.N,/Sense*%
X90250000Y-54250000D03*
%TD*%
D12*
%TO.P,Ci1,1*%
%TO.N,/In*%
X83300000Y-53200000D03*
%TO.P,Ci1,2*%
%TO.N,GND*%
X83300000Y-47800000D03*
%TD*%
D13*
%TO.P,U2,1*%
%TO.N,Net-(D1-Pad1)*%
X88500000Y-57550000D03*
D14*
X94000000Y-61000000D03*
X94000000Y-60000000D03*
%TO.P,U2,2*%
%TO.N,/Vout*%
X94000000Y-64000000D03*
D13*
X88500000Y-67450000D03*
D14*
X94000000Y-65000000D03*
%TD*%
D15*
%TO.P,J1,1,Pin_1*%
%TO.N,/In*%
X75500000Y-54960000D03*
%TO.P,J1,2,Pin_2*%
%TO.N,GND*%
X75500000Y-60040000D03*
%TD*%
D16*
%TO.P,Co1,2*%
%TO.N,GND*%
X99500000Y-66700000D03*
%TO.P,Co1,1*%
%TO.N,/Vout*%
X99500000Y-61300000D03*
%TD*%
D17*
%TO.P,Ct1,2*%
%TO.N,GND*%
X96250000Y-47712500D03*
%TO.P,Ct1,1*%
%TO.N,Net-(Ct1-Pad1)*%
X96250000Y-49787500D03*
%TD*%
D18*
%TO.P,Co2,1*%
%TO.N,/Vout*%
X98937500Y-57500000D03*
%TO.P,Co2,2*%
%TO.N,GND*%
X102062500Y-57500000D03*
%TD*%
D11*
%TO.P,R1,1*%
%TO.N,/Vout*%
X101250000Y-51000000D03*
%TO.P,R1,2*%
%TO.N,/Vfeedback*%
X103250000Y-51000000D03*
%TD*%
D19*
%TO.P,U1,1,SwC*%
%TO.N,/Sense*%
X93475000Y-52155000D03*
%TO.P,U1,2,SwE*%
%TO.N,Net-(D1-Pad1)*%
X93475000Y-50885000D03*
%TO.P,U1,3,TC*%
%TO.N,Net-(Ct1-Pad1)*%
X93475000Y-49615000D03*
%TO.P,U1,4,GND*%
%TO.N,GND*%
X93475000Y-48345000D03*
%TO.P,U1,5,Vfb*%
%TO.N,/Vfeedback*%
X88525000Y-48345000D03*
%TO.P,U1,6,Vin*%
%TO.N,/In*%
X88525000Y-49615000D03*
%TO.P,U1,7,Ipk*%
%TO.N,/Sense*%
X88525000Y-50885000D03*
%TO.P,U1,8,DC*%
X88525000Y-52155000D03*
%TD*%
D20*
%TO.P,R2,1*%
%TO.N,/Vfeedback*%
X103250000Y-48750000D03*
%TO.P,R2,2*%
%TO.N,GND*%
X101250000Y-48750000D03*
%TD*%
D15*
%TO.P,J2,1,Pin_1*%
%TO.N,/Vout*%
X107500000Y-54960000D03*
%TO.P,J2,2,Pin_2*%
%TO.N,GND*%
X107500000Y-60040000D03*
%TD*%
D21*
%TO.N,GND*%
X109500000Y-51500000D03*
X104500000Y-61500000D03*
X104500000Y-63500000D03*
X102500000Y-66500000D03*
X102500000Y-63500000D03*
X102500000Y-61500000D03*
X98500000Y-47500000D03*
X90500000Y-49500000D03*
X90500000Y-47500000D03*
X78500000Y-47500000D03*
X80500000Y-47500000D03*
X80500000Y-49500000D03*
X78500000Y-49500000D03*
X82500000Y-63500000D03*
X80500000Y-63500000D03*
X80500000Y-66500000D03*
X82500000Y-66500000D03*
X78500000Y-66500000D03*
X78500000Y-63500000D03*
X84500000Y-63500000D03*
X90500000Y-63500000D03*
X90500000Y-61500000D03*
X84500000Y-61500000D03*
X82500000Y-61500000D03*
X80500000Y-61500000D03*
X78500000Y-61500000D03*
X82500000Y-58500000D03*
X80500000Y-58500000D03*
X78500000Y-58500000D03*
%TO.N,/Vfeedback*%
X86750000Y-48350000D03*
X104600000Y-48750000D03*
%TD*%
D22*
%TO.N,/Vfeedback*%
X104600000Y-48750000D02*
X103250000Y-48750000D01*
X88520000Y-48350000D02*
X88525000Y-48345000D01*
X86750000Y-48350000D02*
X88520000Y-48350000D01*
X103250000Y-48750000D02*
X103250000Y-51000000D01*
D23*
%TO.N,Net-(Ct1-Pad1)*%
X96077500Y-49615000D02*
X96250000Y-49787500D01*
X93475000Y-49615000D02*
X96077500Y-49615000D01*
%TD*%
%TA.AperFunction,Conductor*%
%TO.N,/Sense*%
G36*
X89692121Y-50520002D02*
G01*
X89738614Y-50573658D01*
X89750000Y-50626000D01*
X89750000Y-51750000D01*
X94374000Y-51750000D01*
X94442121Y-51770002D01*
X94488614Y-51823658D01*
X94500000Y-51876000D01*
X94500000Y-52374000D01*
X94479998Y-52442121D01*
X94426342Y-52488614D01*
X94374000Y-52500000D01*
X91000000Y-52500000D01*
X91000000Y-54874000D01*
X90979998Y-54942121D01*
X90926342Y-54988614D01*
X90874000Y-55000000D01*
X89626000Y-55000000D01*
X89557879Y-54979998D01*
X89511386Y-54926342D01*
X89500000Y-54874000D01*
X89500000Y-52500000D01*
X87626000Y-52500000D01*
X87557879Y-52479998D01*
X87511386Y-52426342D01*
X87500000Y-52374000D01*
X87500000Y-50626000D01*
X87520002Y-50557879D01*
X87573658Y-50511386D01*
X87626000Y-50500000D01*
X89624000Y-50500000D01*
X89692121Y-50520002D01*
G37*
%TD.AperFunction*%
%TD*%
%TA.AperFunction,Conductor*%
%TO.N,Net-(D1-Pad1)*%
G36*
X95015931Y-50520002D02*
G01*
X95036905Y-50536905D01*
X96000000Y-51500000D01*
X99374000Y-51500000D01*
X99442121Y-51520002D01*
X99488614Y-51573658D01*
X99500000Y-51626000D01*
X99500000Y-53189441D01*
X99479998Y-53257562D01*
X99452712Y-53287830D01*
X98284514Y-54222389D01*
X98218825Y-54249325D01*
X98205802Y-54250000D01*
X96750000Y-54250000D01*
X95500000Y-55500000D01*
X95500000Y-61874000D01*
X95479998Y-61942121D01*
X95426342Y-61988614D01*
X95374000Y-62000000D01*
X92626000Y-62000000D01*
X92557879Y-61979998D01*
X92511386Y-61926342D01*
X92500000Y-61874000D01*
X92500000Y-59500000D01*
X85626000Y-59500000D01*
X85557879Y-59479998D01*
X85511386Y-59426342D01*
X85500000Y-59374000D01*
X85500000Y-56126000D01*
X85520002Y-56057879D01*
X85573658Y-56011386D01*
X85626000Y-56000000D01*
X91500000Y-56000000D01*
X91500000Y-53126000D01*
X91520002Y-53057879D01*
X91573658Y-53011386D01*
X91626000Y-53000000D01*
X95500000Y-53000000D01*
X95500000Y-52000000D01*
X94750000Y-51250000D01*
X92626000Y-51250000D01*
X92557879Y-51229998D01*
X92511386Y-51176342D01*
X92500000Y-51124000D01*
X92500000Y-50626000D01*
X92520002Y-50557879D01*
X92573658Y-50511386D01*
X92626000Y-50500000D01*
X94947810Y-50500000D01*
X95015931Y-50520002D01*
G37*
%TD.AperFunction*%
%TD*%
%TA.AperFunction,Conductor*%
%TO.N,/Vout*%
G36*
X101942121Y-50270002D02*
G01*
X101988614Y-50323658D01*
X102000000Y-50376000D01*
X102000000Y-53500000D01*
X108874000Y-53500000D01*
X108942121Y-53520002D01*
X108988614Y-53573658D01*
X109000000Y-53626000D01*
X109000000Y-55874000D01*
X108979998Y-55942121D01*
X108926342Y-55988614D01*
X108874000Y-56000000D01*
X100500000Y-56000000D01*
X100500000Y-63874000D01*
X100479998Y-63942121D01*
X100426342Y-63988614D01*
X100374000Y-64000000D01*
X97250000Y-64000000D01*
X97250000Y-69073500D01*
X97229998Y-69141621D01*
X97176342Y-69188114D01*
X97124000Y-69199500D01*
X85876000Y-69199500D01*
X85807879Y-69179498D01*
X85761386Y-69125842D01*
X85750000Y-69073500D01*
X85750000Y-66126000D01*
X85770002Y-66057879D01*
X85823658Y-66011386D01*
X85876000Y-66000000D01*
X92500000Y-66000000D01*
X92500000Y-62626000D01*
X92520002Y-62557879D01*
X92573658Y-62511386D01*
X92626000Y-62500000D01*
X96250000Y-62500000D01*
X96250000Y-56052190D01*
X96270002Y-55984069D01*
X96286905Y-55963095D01*
X97463095Y-54786905D01*
X97525407Y-54752879D01*
X97552190Y-54750000D01*
X98750000Y-54750000D01*
X100500000Y-53250000D01*
X100500000Y-50376000D01*
X100520002Y-50307879D01*
X100573658Y-50261386D01*
X100626000Y-50250000D01*
X101874000Y-50250000D01*
X101942121Y-50270002D01*
G37*
%TD.AperFunction*%
%TD*%
%TA.AperFunction,Conductor*%
%TO.N,/In*%
G36*
X89442121Y-49270002D02*
G01*
X89488614Y-49323658D01*
X89500000Y-49376000D01*
X89500000Y-49874000D01*
X89479998Y-49942121D01*
X89426342Y-49988614D01*
X89374000Y-50000000D01*
X86750000Y-50000000D01*
X86750000Y-53500000D01*
X88624000Y-53500000D01*
X88692121Y-53520002D01*
X88738614Y-53573658D01*
X88750000Y-53626000D01*
X88750000Y-55124000D01*
X88729998Y-55192121D01*
X88676342Y-55238614D01*
X88624000Y-55250000D01*
X84500000Y-55250000D01*
X84500000Y-56624000D01*
X84479998Y-56692121D01*
X84426342Y-56738614D01*
X84374000Y-56750000D01*
X73876000Y-56750000D01*
X73807879Y-56729998D01*
X73761386Y-56676342D01*
X73750000Y-56624000D01*
X73750000Y-53626000D01*
X73770002Y-53557879D01*
X73823658Y-53511386D01*
X73876000Y-53500000D01*
X79500000Y-53500000D01*
X79500000Y-51626000D01*
X79520002Y-51557879D01*
X79573658Y-51511386D01*
X79626000Y-51500000D01*
X85250000Y-51500000D01*
X85250000Y-49376000D01*
X85270002Y-49307879D01*
X85323658Y-49261386D01*
X85376000Y-49250000D01*
X89374000Y-49250000D01*
X89442121Y-49270002D01*
G37*
%TD.AperFunction*%
%TD*%
%TA.AperFunction,Conductor*%
%TO.N,GND*%
G36*
X111141621Y-45820502D02*
G01*
X111188114Y-45874158D01*
X111199500Y-45926500D01*
X111199500Y-69073500D01*
X111179498Y-69141621D01*
X111125842Y-69188114D01*
X111073500Y-69199500D01*
X97876000Y-69199500D01*
X97807879Y-69179498D01*
X97761386Y-69125842D01*
X97750000Y-69073500D01*
X97750000Y-66043233D01*
X105594906Y-66043233D01*
X105621102Y-66317792D01*
X105686657Y-66585694D01*
X105790199Y-66841326D01*
X105792500Y-66845256D01*
X105792503Y-66845262D01*
X105927255Y-67075403D01*
X105927260Y-67075410D01*
X105929558Y-67079335D01*
X105932405Y-67082895D01*
X106050028Y-67229974D01*
X106101816Y-67294732D01*
X106303364Y-67483008D01*
X106529979Y-67640216D01*
X106534055Y-67642244D01*
X106534057Y-67642245D01*
X106772827Y-67761032D01*
X106772830Y-67761033D01*
X106776914Y-67763065D01*
X107038998Y-67848980D01*
X107043489Y-67849760D01*
X107043490Y-67849760D01*
X107306957Y-67895506D01*
X107306965Y-67895507D01*
X107310738Y-67896162D01*
X107314575Y-67896353D01*
X107396305Y-67900422D01*
X107396313Y-67900422D01*
X107397876Y-67900500D01*
X107570070Y-67900500D01*
X107572338Y-67900335D01*
X107572350Y-67900335D01*
X107706603Y-67890594D01*
X107775083Y-67885625D01*
X107779538Y-67884641D01*
X107779541Y-67884641D01*
X108039947Y-67827148D01*
X108039950Y-67827147D01*
X108044403Y-67826164D01*
X108302319Y-67728449D01*
X108543428Y-67594525D01*
X108762678Y-67427198D01*
X108765873Y-67423930D01*
X108952283Y-67233242D01*
X108952287Y-67233237D01*
X108955477Y-67229974D01*
X109117787Y-67006984D01*
X109246206Y-66762899D01*
X109338045Y-66502832D01*
X109374516Y-66317792D01*
X109390499Y-66236704D01*
X109390500Y-66236698D01*
X109391380Y-66232232D01*
X109391607Y-66227676D01*
X109404867Y-65961336D01*
X109404867Y-65961330D01*
X109405094Y-65956767D01*
X109378898Y-65682208D01*
X109313343Y-65414306D01*
X109209801Y-65158674D01*
X109207500Y-65154744D01*
X109207497Y-65154738D01*
X109072745Y-64924597D01*
X109072740Y-64924590D01*
X109070442Y-64920665D01*
X108952597Y-64773308D01*
X108901036Y-64708834D01*
X108901035Y-64708833D01*
X108898184Y-64705268D01*
X108696636Y-64516992D01*
X108470021Y-64359784D01*
X108292667Y-64271551D01*
X108227173Y-64238968D01*
X108227170Y-64238967D01*
X108223086Y-64236935D01*
X107961002Y-64151020D01*
X107956510Y-64150240D01*
X107693043Y-64104494D01*
X107693035Y-64104493D01*
X107689262Y-64103838D01*
X107679029Y-64103329D01*
X107603695Y-64099578D01*
X107603687Y-64099578D01*
X107602124Y-64099500D01*
X107429930Y-64099500D01*
X107427662Y-64099665D01*
X107427650Y-64099665D01*
X107293397Y-64109406D01*
X107224917Y-64114375D01*
X107220462Y-64115359D01*
X107220459Y-64115359D01*
X106960053Y-64172852D01*
X106960050Y-64172853D01*
X106955597Y-64173836D01*
X106697681Y-64271551D01*
X106456572Y-64405475D01*
X106237322Y-64572802D01*
X106234129Y-64576068D01*
X106234127Y-64576070D01*
X106047717Y-64766758D01*
X106047713Y-64766763D01*
X106044523Y-64770026D01*
X105882213Y-64993016D01*
X105753794Y-65237101D01*
X105661955Y-65497168D01*
X105661075Y-65501634D01*
X105612564Y-65747759D01*
X105608620Y-65767768D01*
X105608393Y-65772322D01*
X105608393Y-65772324D01*
X105599211Y-65956767D01*
X105594906Y-66043233D01*
X97750000Y-66043233D01*
X97750000Y-64626000D01*
X97770002Y-64557879D01*
X97823658Y-64511386D01*
X97876000Y-64500000D01*
X101000000Y-64500000D01*
X101000000Y-57126000D01*
X101020002Y-57057879D01*
X101073658Y-57011386D01*
X101126000Y-57000000D01*
X104874000Y-57000000D01*
X104942121Y-57020002D01*
X104988614Y-57073658D01*
X105000000Y-57126000D01*
X105000000Y-57500000D01*
X109250000Y-57500000D01*
X109250000Y-56066337D01*
X109255505Y-56029500D01*
X109257091Y-56024311D01*
X109259459Y-56018623D01*
X109300179Y-55816673D01*
X109300500Y-55810337D01*
X109300499Y-54109664D01*
X109300179Y-54103327D01*
X109259459Y-53901377D01*
X109257091Y-53895689D01*
X109255505Y-53890500D01*
X109250000Y-53853663D01*
X109250000Y-52500000D01*
X104626000Y-52500000D01*
X104557879Y-52479998D01*
X104511386Y-52426342D01*
X104500000Y-52374000D01*
X104500000Y-49750000D01*
X104127519Y-49750000D01*
X104059398Y-49729998D01*
X104012905Y-49676342D01*
X104002801Y-49606068D01*
X104027157Y-49547820D01*
X104078918Y-49479628D01*
X104078920Y-49479625D01*
X104084113Y-49472783D01*
X104098828Y-49435616D01*
X104142500Y-49379645D01*
X104209503Y-49356168D01*
X104276100Y-49371270D01*
X104304559Y-49386721D01*
X104333558Y-49402467D01*
X104333560Y-49402468D01*
X104340235Y-49406092D01*
X104347584Y-49408020D01*
X104496883Y-49447188D01*
X104496885Y-49447188D01*
X104504233Y-49449116D01*
X104590609Y-49450473D01*
X104666161Y-49451660D01*
X104666164Y-49451660D01*
X104673760Y-49451779D01*
X104681165Y-49450083D01*
X104681166Y-49450083D01*
X104744319Y-49435619D01*
X104839029Y-49413928D01*
X104990498Y-49337747D01*
X105097291Y-49246537D01*
X105113651Y-49232564D01*
X105113652Y-49232563D01*
X105119423Y-49227634D01*
X105218361Y-49089947D01*
X105229449Y-49062366D01*
X105237140Y-49043233D01*
X105594906Y-49043233D01*
X105621102Y-49317792D01*
X105622187Y-49322226D01*
X105622188Y-49322232D01*
X105657075Y-49464801D01*
X105686657Y-49585694D01*
X105790199Y-49841326D01*
X105792500Y-49845256D01*
X105792503Y-49845262D01*
X105927255Y-50075403D01*
X105927260Y-50075410D01*
X105929558Y-50079335D01*
X105932405Y-50082895D01*
X106050028Y-50229974D01*
X106101816Y-50294732D01*
X106303364Y-50483008D01*
X106529979Y-50640216D01*
X106534055Y-50642244D01*
X106534057Y-50642245D01*
X106772827Y-50761032D01*
X106772830Y-50761033D01*
X106776914Y-50763065D01*
X107038998Y-50848980D01*
X107043489Y-50849760D01*
X107043490Y-50849760D01*
X107306957Y-50895506D01*
X107306965Y-50895507D01*
X107310738Y-50896162D01*
X107314575Y-50896353D01*
X107396305Y-50900422D01*
X107396313Y-50900422D01*
X107397876Y-50900500D01*
X107570070Y-50900500D01*
X107572338Y-50900335D01*
X107572350Y-50900335D01*
X107706603Y-50890594D01*
X107775083Y-50885625D01*
X107779538Y-50884641D01*
X107779541Y-50884641D01*
X108039947Y-50827148D01*
X108039950Y-50827147D01*
X108044403Y-50826164D01*
X108302319Y-50728449D01*
X108397646Y-50675500D01*
X108539435Y-50596743D01*
X108539436Y-50596742D01*
X108543428Y-50594525D01*
X108762678Y-50427198D01*
X108765873Y-50423930D01*
X108952283Y-50233242D01*
X108952287Y-50233237D01*
X108955477Y-50229974D01*
X108958166Y-50226280D01*
X109115100Y-50010676D01*
X109115102Y-50010673D01*
X109117787Y-50006984D01*
X109246206Y-49762899D01*
X109338045Y-49502832D01*
X109374583Y-49317453D01*
X109390499Y-49236704D01*
X109390500Y-49236698D01*
X109391380Y-49232232D01*
X109391916Y-49221470D01*
X109404867Y-48961336D01*
X109404867Y-48961330D01*
X109405094Y-48956767D01*
X109378898Y-48682208D01*
X109377541Y-48676660D01*
X109314429Y-48418744D01*
X109313343Y-48414306D01*
X109209801Y-48158674D01*
X109207500Y-48154744D01*
X109207497Y-48154738D01*
X109072745Y-47924597D01*
X109072740Y-47924590D01*
X109070442Y-47920665D01*
X108950400Y-47770560D01*
X108901036Y-47708834D01*
X108901035Y-47708833D01*
X108898184Y-47705268D01*
X108696636Y-47516992D01*
X108470021Y-47359784D01*
X108292667Y-47271551D01*
X108227173Y-47238968D01*
X108227170Y-47238967D01*
X108223086Y-47236935D01*
X107961002Y-47151020D01*
X107956510Y-47150240D01*
X107693043Y-47104494D01*
X107693035Y-47104493D01*
X107689262Y-47103838D01*
X107679029Y-47103329D01*
X107603695Y-47099578D01*
X107603687Y-47099578D01*
X107602124Y-47099500D01*
X107429930Y-47099500D01*
X107427662Y-47099665D01*
X107427650Y-47099665D01*
X107293397Y-47109406D01*
X107224917Y-47114375D01*
X107220462Y-47115359D01*
X107220459Y-47115359D01*
X106960053Y-47172852D01*
X106960050Y-47172853D01*
X106955597Y-47173836D01*
X106697681Y-47271551D01*
X106456572Y-47405475D01*
X106237322Y-47572802D01*
X106234129Y-47576068D01*
X106234127Y-47576070D01*
X106047717Y-47766758D01*
X106047713Y-47766763D01*
X106044523Y-47770026D01*
X106041836Y-47773718D01*
X106041834Y-47773720D01*
X105939791Y-47913913D01*
X105882213Y-47993016D01*
X105753794Y-48237101D01*
X105661955Y-48497168D01*
X105661075Y-48501634D01*
X105612932Y-48745892D01*
X105608620Y-48767768D01*
X105608393Y-48772322D01*
X105608393Y-48772324D01*
X105596323Y-49014779D01*
X105594906Y-49043233D01*
X105237140Y-49043233D01*
X105278766Y-48939687D01*
X105278767Y-48939685D01*
X105281601Y-48932634D01*
X105293290Y-48850500D01*
X105304909Y-48768862D01*
X105304909Y-48768859D01*
X105305490Y-48764778D01*
X105305645Y-48750000D01*
X105285276Y-48581680D01*
X105225345Y-48423077D01*
X105129312Y-48283349D01*
X105123641Y-48278296D01*
X105008392Y-48175612D01*
X105008388Y-48175610D01*
X105002721Y-48170560D01*
X104982632Y-48159923D01*
X104926165Y-48130026D01*
X104852881Y-48091224D01*
X104688441Y-48049919D01*
X104680843Y-48049879D01*
X104680841Y-48049879D01*
X104603668Y-48049475D01*
X104518895Y-48049031D01*
X104511508Y-48050805D01*
X104511504Y-48050805D01*
X104368162Y-48085220D01*
X104354032Y-48088612D01*
X104347288Y-48092093D01*
X104347285Y-48092094D01*
X104273794Y-48130026D01*
X104204087Y-48143495D01*
X104138163Y-48117140D01*
X104098852Y-48064444D01*
X104093085Y-48049879D01*
X104084113Y-48027217D01*
X103992922Y-47907078D01*
X103872783Y-47815887D01*
X103766281Y-47773720D01*
X103740077Y-47763345D01*
X103740075Y-47763344D01*
X103732547Y-47760364D01*
X103642772Y-47749500D01*
X102857228Y-47749500D01*
X102767453Y-47760364D01*
X102759925Y-47763344D01*
X102759923Y-47763345D01*
X102733719Y-47773720D01*
X102627217Y-47815887D01*
X102507078Y-47907078D01*
X102415887Y-48027217D01*
X102406915Y-48049879D01*
X102369599Y-48144129D01*
X102360364Y-48167453D01*
X102349500Y-48257228D01*
X102349500Y-49242772D01*
X102360364Y-49332547D01*
X102363344Y-49340075D01*
X102363345Y-49340077D01*
X102369716Y-49356168D01*
X102415887Y-49472783D01*
X102421080Y-49479625D01*
X102421082Y-49479628D01*
X102472843Y-49547820D01*
X102498097Y-49614173D01*
X102483469Y-49683646D01*
X102433603Y-49734182D01*
X102372481Y-49750000D01*
X97401500Y-49750000D01*
X97333379Y-49729998D01*
X97286886Y-49676342D01*
X97275500Y-49624000D01*
X97275500Y-49407228D01*
X97264636Y-49317453D01*
X97209113Y-49177217D01*
X97117922Y-49057078D01*
X96997783Y-48965887D01*
X96913795Y-48932634D01*
X96865077Y-48913345D01*
X96865075Y-48913344D01*
X96857547Y-48910364D01*
X96767772Y-48899500D01*
X95732228Y-48899500D01*
X95642453Y-48910364D01*
X95634925Y-48913344D01*
X95634923Y-48913345D01*
X95586205Y-48932634D01*
X95502217Y-48965887D01*
X95495376Y-48971079D01*
X95495377Y-48971079D01*
X95406075Y-49038863D01*
X95339721Y-49064116D01*
X95329895Y-49064500D01*
X94540742Y-49064500D01*
X94498994Y-49057383D01*
X94498126Y-49057078D01*
X94385369Y-49017481D01*
X94377723Y-49016758D01*
X94377722Y-49016758D01*
X94371752Y-49016194D01*
X94353834Y-49014500D01*
X92596166Y-49014500D01*
X92578248Y-49016194D01*
X92572278Y-49016758D01*
X92572277Y-49016758D01*
X92564631Y-49017481D01*
X92436816Y-49062366D01*
X92429246Y-49067958D01*
X92429243Y-49067959D01*
X92391126Y-49096113D01*
X92327850Y-49142850D01*
X92322258Y-49150421D01*
X92252959Y-49244243D01*
X92252958Y-49244246D01*
X92247366Y-49251816D01*
X92202481Y-49379631D01*
X92199500Y-49411166D01*
X92199500Y-49818834D01*
X92202481Y-49850369D01*
X92205026Y-49857616D01*
X92242883Y-49965418D01*
X92250000Y-50007166D01*
X92250000Y-50492834D01*
X92242883Y-50534582D01*
X92202481Y-50649631D01*
X92199500Y-50681166D01*
X92199500Y-51088834D01*
X92199779Y-51091784D01*
X92199779Y-51091787D01*
X92201703Y-51112144D01*
X92188200Y-51181844D01*
X92139157Y-51233180D01*
X92076262Y-51250000D01*
X90126000Y-51250000D01*
X90057879Y-51229998D01*
X90011386Y-51176342D01*
X90000000Y-51124000D01*
X90000000Y-49000000D01*
X89786803Y-49000000D01*
X89718682Y-48979998D01*
X89672189Y-48926342D01*
X89662085Y-48856068D01*
X89685452Y-48799140D01*
X89747041Y-48715757D01*
X89747042Y-48715754D01*
X89752634Y-48708184D01*
X89797519Y-48580369D01*
X89800500Y-48548834D01*
X89800500Y-48141166D01*
X89797519Y-48109631D01*
X89752634Y-47981816D01*
X89747042Y-47974246D01*
X89747041Y-47974243D01*
X89677742Y-47880421D01*
X89672150Y-47872850D01*
X89640177Y-47849234D01*
X89570757Y-47797959D01*
X89570754Y-47797958D01*
X89563184Y-47792366D01*
X89435369Y-47747481D01*
X89427723Y-47746758D01*
X89427722Y-47746758D01*
X89421752Y-47746194D01*
X89403834Y-47744500D01*
X87646166Y-47744500D01*
X87628248Y-47746194D01*
X87622278Y-47746758D01*
X87622277Y-47746758D01*
X87614631Y-47747481D01*
X87607384Y-47750026D01*
X87495705Y-47789244D01*
X87495703Y-47789245D01*
X87486816Y-47792366D01*
X87447942Y-47821079D01*
X87442835Y-47824851D01*
X87376157Y-47849234D01*
X87367976Y-47849500D01*
X87289309Y-47849500D01*
X87221188Y-47829498D01*
X87205499Y-47817583D01*
X87152721Y-47770560D01*
X87145541Y-47766758D01*
X87085080Y-47734746D01*
X87002881Y-47691224D01*
X86838441Y-47649919D01*
X86830843Y-47649879D01*
X86830841Y-47649879D01*
X86753668Y-47649475D01*
X86668895Y-47649031D01*
X86661508Y-47650805D01*
X86661504Y-47650805D01*
X86518162Y-47685220D01*
X86504032Y-47688612D01*
X86497288Y-47692093D01*
X86497285Y-47692094D01*
X86366900Y-47759391D01*
X86353369Y-47766375D01*
X86347647Y-47771367D01*
X86347645Y-47771368D01*
X86300237Y-47812725D01*
X86225604Y-47877831D01*
X86221237Y-47884045D01*
X86147246Y-47989324D01*
X86128113Y-48016547D01*
X86066524Y-48174513D01*
X86065532Y-48182046D01*
X86065532Y-48182047D01*
X86051372Y-48289608D01*
X86044394Y-48342611D01*
X86062999Y-48511135D01*
X86121266Y-48670356D01*
X86125502Y-48676659D01*
X86125502Y-48676660D01*
X86210885Y-48803724D01*
X86232277Y-48871422D01*
X86213673Y-48939937D01*
X86160980Y-48987519D01*
X86106303Y-49000000D01*
X84750000Y-49000000D01*
X84750000Y-50874000D01*
X84729998Y-50942121D01*
X84676342Y-50988614D01*
X84624000Y-51000000D01*
X78750000Y-51000000D01*
X78750000Y-52624000D01*
X78729998Y-52692121D01*
X78676342Y-52738614D01*
X78624000Y-52750000D01*
X73250000Y-52750000D01*
X73250000Y-57250000D01*
X84624000Y-57250000D01*
X84692121Y-57270002D01*
X84738614Y-57323658D01*
X84750000Y-57376000D01*
X84750000Y-60000000D01*
X91874000Y-60000000D01*
X91942121Y-60020002D01*
X91988614Y-60073658D01*
X92000000Y-60126000D01*
X92000000Y-65124000D01*
X91979998Y-65192121D01*
X91926342Y-65238614D01*
X91874000Y-65250000D01*
X84750000Y-65250000D01*
X84750000Y-69073500D01*
X84729998Y-69141621D01*
X84676342Y-69188114D01*
X84624000Y-69199500D01*
X71926500Y-69199500D01*
X71858379Y-69179498D01*
X71811886Y-69125842D01*
X71800500Y-69073500D01*
X71800500Y-66043233D01*
X73594906Y-66043233D01*
X73621102Y-66317792D01*
X73686657Y-66585694D01*
X73790199Y-66841326D01*
X73792500Y-66845256D01*
X73792503Y-66845262D01*
X73927255Y-67075403D01*
X73927260Y-67075410D01*
X73929558Y-67079335D01*
X73932405Y-67082895D01*
X74050028Y-67229974D01*
X74101816Y-67294732D01*
X74303364Y-67483008D01*
X74529979Y-67640216D01*
X74534055Y-67642244D01*
X74534057Y-67642245D01*
X74772827Y-67761032D01*
X74772830Y-67761033D01*
X74776914Y-67763065D01*
X75038998Y-67848980D01*
X75043489Y-67849760D01*
X75043490Y-67849760D01*
X75306957Y-67895506D01*
X75306965Y-67895507D01*
X75310738Y-67896162D01*
X75314575Y-67896353D01*
X75396305Y-67900422D01*
X75396313Y-67900422D01*
X75397876Y-67900500D01*
X75570070Y-67900500D01*
X75572338Y-67900335D01*
X75572350Y-67900335D01*
X75706603Y-67890594D01*
X75775083Y-67885625D01*
X75779538Y-67884641D01*
X75779541Y-67884641D01*
X76039947Y-67827148D01*
X76039950Y-67827147D01*
X76044403Y-67826164D01*
X76302319Y-67728449D01*
X76543428Y-67594525D01*
X76762678Y-67427198D01*
X76765873Y-67423930D01*
X76952283Y-67233242D01*
X76952287Y-67233237D01*
X76955477Y-67229974D01*
X77117787Y-67006984D01*
X77246206Y-66762899D01*
X77338045Y-66502832D01*
X77374516Y-66317792D01*
X77390499Y-66236704D01*
X77390500Y-66236698D01*
X77391380Y-66232232D01*
X77391607Y-66227676D01*
X77404867Y-65961336D01*
X77404867Y-65961330D01*
X77405094Y-65956767D01*
X77378898Y-65682208D01*
X77313343Y-65414306D01*
X77209801Y-65158674D01*
X77207500Y-65154744D01*
X77207497Y-65154738D01*
X77072745Y-64924597D01*
X77072740Y-64924590D01*
X77070442Y-64920665D01*
X76952597Y-64773308D01*
X76901036Y-64708834D01*
X76901035Y-64708833D01*
X76898184Y-64705268D01*
X76696636Y-64516992D01*
X76470021Y-64359784D01*
X76292667Y-64271551D01*
X76227173Y-64238968D01*
X76227170Y-64238967D01*
X76223086Y-64236935D01*
X75961002Y-64151020D01*
X75956510Y-64150240D01*
X75693043Y-64104494D01*
X75693035Y-64104493D01*
X75689262Y-64103838D01*
X75679029Y-64103329D01*
X75603695Y-64099578D01*
X75603687Y-64099578D01*
X75602124Y-64099500D01*
X75429930Y-64099500D01*
X75427662Y-64099665D01*
X75427650Y-64099665D01*
X75293397Y-64109406D01*
X75224917Y-64114375D01*
X75220462Y-64115359D01*
X75220459Y-64115359D01*
X74960053Y-64172852D01*
X74960050Y-64172853D01*
X74955597Y-64173836D01*
X74697681Y-64271551D01*
X74456572Y-64405475D01*
X74237322Y-64572802D01*
X74234129Y-64576068D01*
X74234127Y-64576070D01*
X74047717Y-64766758D01*
X74047713Y-64766763D01*
X74044523Y-64770026D01*
X73882213Y-64993016D01*
X73753794Y-65237101D01*
X73661955Y-65497168D01*
X73661075Y-65501634D01*
X73612564Y-65747759D01*
X73608620Y-65767768D01*
X73608393Y-65772322D01*
X73608393Y-65772324D01*
X73599211Y-65956767D01*
X73594906Y-66043233D01*
X71800500Y-66043233D01*
X71800500Y-49043233D01*
X73594906Y-49043233D01*
X73621102Y-49317792D01*
X73622187Y-49322226D01*
X73622188Y-49322232D01*
X73657075Y-49464801D01*
X73686657Y-49585694D01*
X73790199Y-49841326D01*
X73792500Y-49845256D01*
X73792503Y-49845262D01*
X73927255Y-50075403D01*
X73927260Y-50075410D01*
X73929558Y-50079335D01*
X73932405Y-50082895D01*
X74050028Y-50229974D01*
X74101816Y-50294732D01*
X74303364Y-50483008D01*
X74529979Y-50640216D01*
X74534055Y-50642244D01*
X74534057Y-50642245D01*
X74772827Y-50761032D01*
X74772830Y-50761033D01*
X74776914Y-50763065D01*
X75038998Y-50848980D01*
X75043489Y-50849760D01*
X75043490Y-50849760D01*
X75306957Y-50895506D01*
X75306965Y-50895507D01*
X75310738Y-50896162D01*
X75314575Y-50896353D01*
X75396305Y-50900422D01*
X75396313Y-50900422D01*
X75397876Y-50900500D01*
X75570070Y-50900500D01*
X75572338Y-50900335D01*
X75572350Y-50900335D01*
X75706603Y-50890594D01*
X75775083Y-50885625D01*
X75779538Y-50884641D01*
X75779541Y-50884641D01*
X76039947Y-50827148D01*
X76039950Y-50827147D01*
X76044403Y-50826164D01*
X76302319Y-50728449D01*
X76397646Y-50675500D01*
X76539435Y-50596743D01*
X76539436Y-50596742D01*
X76543428Y-50594525D01*
X76762678Y-50427198D01*
X76765873Y-50423930D01*
X76952283Y-50233242D01*
X76952287Y-50233237D01*
X76955477Y-50229974D01*
X76958166Y-50226280D01*
X77115100Y-50010676D01*
X77115102Y-50010673D01*
X77117787Y-50006984D01*
X77246206Y-49762899D01*
X77338045Y-49502832D01*
X77374583Y-49317453D01*
X77390499Y-49236704D01*
X77390500Y-49236698D01*
X77391380Y-49232232D01*
X77391916Y-49221470D01*
X77404867Y-48961336D01*
X77404867Y-48961330D01*
X77405094Y-48956767D01*
X77378898Y-48682208D01*
X77377541Y-48676660D01*
X77314429Y-48418744D01*
X77313343Y-48414306D01*
X77209801Y-48158674D01*
X77207500Y-48154744D01*
X77207497Y-48154738D01*
X77072745Y-47924597D01*
X77072740Y-47924590D01*
X77070442Y-47920665D01*
X76950400Y-47770560D01*
X76901036Y-47708834D01*
X76901035Y-47708833D01*
X76898184Y-47705268D01*
X76696636Y-47516992D01*
X76470021Y-47359784D01*
X76292667Y-47271551D01*
X76227173Y-47238968D01*
X76227170Y-47238967D01*
X76223086Y-47236935D01*
X75961002Y-47151020D01*
X75956510Y-47150240D01*
X75693043Y-47104494D01*
X75693035Y-47104493D01*
X75689262Y-47103838D01*
X75679029Y-47103329D01*
X75603695Y-47099578D01*
X75603687Y-47099578D01*
X75602124Y-47099500D01*
X75429930Y-47099500D01*
X75427662Y-47099665D01*
X75427650Y-47099665D01*
X75293397Y-47109406D01*
X75224917Y-47114375D01*
X75220462Y-47115359D01*
X75220459Y-47115359D01*
X74960053Y-47172852D01*
X74960050Y-47172853D01*
X74955597Y-47173836D01*
X74697681Y-47271551D01*
X74456572Y-47405475D01*
X74237322Y-47572802D01*
X74234129Y-47576068D01*
X74234127Y-47576070D01*
X74047717Y-47766758D01*
X74047713Y-47766763D01*
X74044523Y-47770026D01*
X74041836Y-47773718D01*
X74041834Y-47773720D01*
X73939791Y-47913913D01*
X73882213Y-47993016D01*
X73753794Y-48237101D01*
X73661955Y-48497168D01*
X73661075Y-48501634D01*
X73612932Y-48745892D01*
X73608620Y-48767768D01*
X73608393Y-48772322D01*
X73608393Y-48772324D01*
X73596323Y-49014779D01*
X73594906Y-49043233D01*
X71800500Y-49043233D01*
X71800500Y-45926500D01*
X71820502Y-45858379D01*
X71874158Y-45811886D01*
X71926500Y-45800500D01*
X111073500Y-45800500D01*
X111141621Y-45820502D01*
G37*
%TD.AperFunction*%
%TD*%
M02*
