%TF.GenerationSoftware,KiCad,Pcbnew,(6.0.7)*%
%TF.CreationDate,2022-10-09T14:23:20+03:00*%
%TF.ProjectId,mc34063-step-down,6d633334-3036-4332-9d73-7465702d646f,rev?*%
%TF.SameCoordinates,Original*%
%TF.FileFunction,Legend,Top*%
%TF.FilePolarity,Positive*%
%FSLAX46Y46*%
G04 Gerber Fmt 4.6, Leading zero omitted, Abs format (unit mm)*
G04 Created by KiCad (PCBNEW (6.0.7)) date 2022-10-09 14:23:20*
%MOMM*%
%LPD*%
G01*
G04 APERTURE LIST*
%ADD10C,0.120000*%
G04 APERTURE END LIST*
D10*
%TO.C,J5*%
X110500000Y-66000000D02*
G75*
G03*
X110500000Y-66000000I-3000000J0D01*
G01*
%TO.C,J6*%
X78500000Y-66000000D02*
G75*
G03*
X78500000Y-66000000I-3000000J0D01*
G01*
%TO.C,J3*%
X78500000Y-49000000D02*
G75*
G03*
X78500000Y-49000000I-3000000J0D01*
G01*
%TO.C,J4*%
X110500000Y-49000000D02*
G75*
G03*
X110500000Y-49000000I-3000000J0D01*
G01*
%TO.C,D1*%
X97750000Y-52750000D02*
X97750000Y-48850000D01*
X97750000Y-52750000D02*
X99750000Y-52750000D01*
X99750000Y-52750000D02*
X99750000Y-48850000D01*
%TO.C,RSC1*%
X89022936Y-53515000D02*
X89477064Y-53515000D01*
X89022936Y-54985000D02*
X89477064Y-54985000D01*
%TO.C,Ci1*%
X85645563Y-53910000D02*
X84360000Y-53910000D01*
X79890000Y-52845563D02*
X79890000Y-47090000D01*
X80954437Y-53910000D02*
X79890000Y-52845563D01*
X79890000Y-47090000D02*
X82240000Y-47090000D01*
X86710000Y-52845563D02*
X86710000Y-47090000D01*
X86710000Y-47090000D02*
X84360000Y-47090000D01*
X81452500Y-54937500D02*
X81452500Y-54150000D01*
X81058750Y-54543750D02*
X81846250Y-54543750D01*
X80954437Y-53910000D02*
X82240000Y-53910000D01*
X85645563Y-53910000D02*
X86710000Y-52845563D01*
%TO.C,U2*%
X85200000Y-68800000D02*
X82200000Y-68800000D01*
X82200000Y-68800000D02*
X82200000Y-56200000D01*
X91800000Y-56200000D02*
X94800000Y-56200000D01*
X82200000Y-56200000D02*
X85200000Y-56200000D01*
X94800000Y-68800000D02*
X91800000Y-68800000D01*
%TO.C,J1*%
X79310000Y-62580000D02*
X79310000Y-52420000D01*
X71690000Y-52420000D02*
X71690000Y-62580000D01*
X71690000Y-62580000D02*
X79310000Y-62580000D01*
X72960000Y-62580000D02*
X72960000Y-52420000D01*
X79310000Y-52420000D02*
X71690000Y-52420000D01*
%TO.C,Co1*%
X97154437Y-60590000D02*
X96090000Y-61654437D01*
X101845563Y-60590000D02*
X100560000Y-60590000D01*
X101845563Y-60590000D02*
X102910000Y-61654437D01*
X96090000Y-67410000D02*
X98440000Y-67410000D01*
X101347500Y-59562500D02*
X101347500Y-60350000D01*
X102910000Y-61654437D02*
X102910000Y-67410000D01*
X101741250Y-59956250D02*
X100953750Y-59956250D01*
X97154437Y-60590000D02*
X98440000Y-60590000D01*
X102910000Y-67410000D02*
X100560000Y-67410000D01*
X96090000Y-61654437D02*
X96090000Y-67410000D01*
%TO.C,Ct1*%
X96985000Y-49011252D02*
X96985000Y-48488748D01*
X95515000Y-49011252D02*
X95515000Y-48488748D01*
%TO.C,Co2*%
X99788748Y-56590000D02*
X101211252Y-56590000D01*
X99788748Y-58410000D02*
X101211252Y-58410000D01*
%TO.C,R1*%
X102022936Y-50265000D02*
X102477064Y-50265000D01*
X102022936Y-51735000D02*
X102477064Y-51735000D01*
%TO.C,U1*%
X91000000Y-47690000D02*
X89050000Y-47690000D01*
X91000000Y-47690000D02*
X92950000Y-47690000D01*
X91000000Y-52810000D02*
X94450000Y-52810000D01*
X91000000Y-52810000D02*
X89050000Y-52810000D01*
%TO.C,R2*%
X102477064Y-48015000D02*
X102022936Y-48015000D01*
X102477064Y-49485000D02*
X102022936Y-49485000D01*
%TO.C,J2*%
X111310000Y-62580000D02*
X111310000Y-52420000D01*
X103690000Y-52420000D02*
X103690000Y-62580000D01*
X103690000Y-62580000D02*
X111310000Y-62580000D01*
X104960000Y-62580000D02*
X104960000Y-52420000D01*
X111310000Y-52420000D02*
X103690000Y-52420000D01*
%TD*%
M02*
