%TF.GenerationSoftware,KiCad,Pcbnew,(6.0.7)*%
%TF.CreationDate,2022-10-15T23:28:00+03:00*%
%TF.ProjectId,mc34063-step-down-dev-0.3,6d633334-3036-4332-9d73-7465702d646f,rev?*%
%TF.SameCoordinates,Original*%
%TF.FileFunction,Legend,Bot*%
%TF.FilePolarity,Positive*%
%FSLAX46Y46*%
G04 Gerber Fmt 4.6, Leading zero omitted, Abs format (unit mm)*
G04 Created by KiCad (PCBNEW (6.0.7)) date 2022-10-15 23:28:00*
%MOMM*%
%LPD*%
G01*
G04 APERTURE LIST*
%ADD10C,0.375000*%
%ADD11C,0.750000*%
%ADD12C,0.250000*%
%ADD13C,0.150000*%
%ADD14C,0.200000*%
G04 APERTURE END LIST*
D10*
X80601428Y-57248857D02*
X82101428Y-57248857D01*
X80601428Y-56534571D02*
X82101428Y-56534571D01*
X80601428Y-55677428D01*
X82101428Y-55677428D01*
X80601428Y-54963142D02*
X82101428Y-54963142D01*
X82101428Y-54391714D01*
X82030000Y-54248857D01*
X81958571Y-54177428D01*
X81815714Y-54106000D01*
X81601428Y-54106000D01*
X81458571Y-54177428D01*
X81387142Y-54248857D01*
X81315714Y-54391714D01*
X81315714Y-54963142D01*
X82101428Y-53463142D02*
X80887142Y-53463142D01*
X80744285Y-53391714D01*
X80672857Y-53320285D01*
X80601428Y-53177428D01*
X80601428Y-52891714D01*
X80672857Y-52748857D01*
X80744285Y-52677428D01*
X80887142Y-52606000D01*
X82101428Y-52606000D01*
X82101428Y-52106000D02*
X82101428Y-51248857D01*
X80601428Y-51677428D02*
X82101428Y-51677428D01*
D11*
X85978857Y-60920285D02*
X83693142Y-60920285D01*
D10*
X101992285Y-47692571D02*
X101706571Y-47692571D01*
X101563714Y-47764000D01*
X101420857Y-47906857D01*
X101349428Y-48192571D01*
X101349428Y-48692571D01*
X101420857Y-48978285D01*
X101563714Y-49121142D01*
X101706571Y-49192571D01*
X101992285Y-49192571D01*
X102135142Y-49121142D01*
X102278000Y-48978285D01*
X102349428Y-48692571D01*
X102349428Y-48192571D01*
X102278000Y-47906857D01*
X102135142Y-47764000D01*
X101992285Y-47692571D01*
X100706571Y-49192571D02*
X100706571Y-47692571D01*
X99849428Y-49192571D02*
X100492285Y-48335428D01*
X99849428Y-47692571D02*
X100706571Y-48549714D01*
X99206571Y-49192571D02*
X99206571Y-47692571D01*
X98492285Y-49192571D02*
X98492285Y-47692571D01*
X97992285Y-48764000D01*
X97492285Y-47692571D01*
X97492285Y-49192571D01*
X96492285Y-47692571D02*
X96206571Y-47692571D01*
X96063714Y-47764000D01*
X95920857Y-47906857D01*
X95849428Y-48192571D01*
X95849428Y-48692571D01*
X95920857Y-48978285D01*
X96063714Y-49121142D01*
X96206571Y-49192571D01*
X96492285Y-49192571D01*
X96635142Y-49121142D01*
X96778000Y-48978285D01*
X96849428Y-48692571D01*
X96849428Y-48192571D01*
X96778000Y-47906857D01*
X96635142Y-47764000D01*
X96492285Y-47692571D01*
X95420857Y-47692571D02*
X94563714Y-47692571D01*
X94992285Y-49192571D02*
X94992285Y-47692571D01*
X94063714Y-47692571D02*
X94063714Y-48906857D01*
X93992285Y-49049714D01*
X93920857Y-49121142D01*
X93778000Y-49192571D01*
X93492285Y-49192571D01*
X93349428Y-49121142D01*
X93278000Y-49049714D01*
X93206571Y-48906857D01*
X93206571Y-47692571D01*
X92563714Y-49121142D02*
X92349428Y-49192571D01*
X91992285Y-49192571D01*
X91849428Y-49121142D01*
X91778000Y-49049714D01*
X91706571Y-48906857D01*
X91706571Y-48764000D01*
X91778000Y-48621142D01*
X91849428Y-48549714D01*
X91992285Y-48478285D01*
X92278000Y-48406857D01*
X92420857Y-48335428D01*
X92492285Y-48264000D01*
X92563714Y-48121142D01*
X92563714Y-47978285D01*
X92492285Y-47835428D01*
X92420857Y-47764000D01*
X92278000Y-47692571D01*
X91920857Y-47692571D01*
X91706571Y-47764000D01*
D12*
X109446142Y-56038571D02*
X109446142Y-56610000D01*
X108874714Y-56667142D01*
X108931857Y-56610000D01*
X108989000Y-56495714D01*
X108989000Y-56210000D01*
X108931857Y-56095714D01*
X108874714Y-56038571D01*
X108760428Y-55981428D01*
X108474714Y-55981428D01*
X108360428Y-56038571D01*
X108303285Y-56095714D01*
X108246142Y-56210000D01*
X108246142Y-56495714D01*
X108303285Y-56610000D01*
X108360428Y-56667142D01*
X109446142Y-55638571D02*
X108246142Y-55238571D01*
X109446142Y-54838571D01*
X108246142Y-54438571D02*
X109446142Y-54438571D01*
X109446142Y-54152857D01*
X109389000Y-53981428D01*
X109274714Y-53867142D01*
X109160428Y-53810000D01*
X108931857Y-53752857D01*
X108760428Y-53752857D01*
X108531857Y-53810000D01*
X108417571Y-53867142D01*
X108303285Y-53981428D01*
X108246142Y-54152857D01*
X108246142Y-54438571D01*
X108360428Y-52552857D02*
X108303285Y-52610000D01*
X108246142Y-52781428D01*
X108246142Y-52895714D01*
X108303285Y-53067142D01*
X108417571Y-53181428D01*
X108531857Y-53238571D01*
X108760428Y-53295714D01*
X108931857Y-53295714D01*
X109160428Y-53238571D01*
X109274714Y-53181428D01*
X109389000Y-53067142D01*
X109446142Y-52895714D01*
X109446142Y-52781428D01*
X109389000Y-52610000D01*
X109331857Y-52552857D01*
X107514142Y-56610000D02*
X107514142Y-56495714D01*
X107457000Y-56381428D01*
X107399857Y-56324285D01*
X107285571Y-56267142D01*
X107057000Y-56210000D01*
X106771285Y-56210000D01*
X106542714Y-56267142D01*
X106428428Y-56324285D01*
X106371285Y-56381428D01*
X106314142Y-56495714D01*
X106314142Y-56610000D01*
X106371285Y-56724285D01*
X106428428Y-56781428D01*
X106542714Y-56838571D01*
X106771285Y-56895714D01*
X107057000Y-56895714D01*
X107285571Y-56838571D01*
X107399857Y-56781428D01*
X107457000Y-56724285D01*
X107514142Y-56610000D01*
X106428428Y-55695714D02*
X106371285Y-55638571D01*
X106314142Y-55695714D01*
X106371285Y-55752857D01*
X106428428Y-55695714D01*
X106314142Y-55695714D01*
X107514142Y-55238571D02*
X107514142Y-54438571D01*
X106314142Y-54952857D01*
X107514142Y-53410000D02*
X107514142Y-53981428D01*
X106942714Y-54038571D01*
X106999857Y-53981428D01*
X107057000Y-53867142D01*
X107057000Y-53581428D01*
X106999857Y-53467142D01*
X106942714Y-53410000D01*
X106828428Y-53352857D01*
X106542714Y-53352857D01*
X106428428Y-53410000D01*
X106371285Y-53467142D01*
X106314142Y-53581428D01*
X106314142Y-53867142D01*
X106371285Y-53981428D01*
X106428428Y-54038571D01*
X106657000Y-52895714D02*
X106657000Y-52324285D01*
X106314142Y-53010000D02*
X107514142Y-52610000D01*
X106314142Y-52210000D01*
D13*
X100248404Y-50998380D02*
X100248404Y-49998380D01*
X99915071Y-50712666D01*
X99581738Y-49998380D01*
X99581738Y-50998380D01*
X98534119Y-50903142D02*
X98581738Y-50950761D01*
X98724595Y-50998380D01*
X98819833Y-50998380D01*
X98962690Y-50950761D01*
X99057928Y-50855523D01*
X99105547Y-50760285D01*
X99153166Y-50569809D01*
X99153166Y-50426952D01*
X99105547Y-50236476D01*
X99057928Y-50141238D01*
X98962690Y-50046000D01*
X98819833Y-49998380D01*
X98724595Y-49998380D01*
X98581738Y-50046000D01*
X98534119Y-50093619D01*
X98200785Y-49998380D02*
X97581738Y-49998380D01*
X97915071Y-50379333D01*
X97772214Y-50379333D01*
X97676976Y-50426952D01*
X97629357Y-50474571D01*
X97581738Y-50569809D01*
X97581738Y-50807904D01*
X97629357Y-50903142D01*
X97676976Y-50950761D01*
X97772214Y-50998380D01*
X98057928Y-50998380D01*
X98153166Y-50950761D01*
X98200785Y-50903142D01*
X97248404Y-50998380D02*
X96724595Y-50331714D01*
X97248404Y-50331714D02*
X96724595Y-50998380D01*
X96153166Y-49998380D02*
X96057928Y-49998380D01*
X95962690Y-50046000D01*
X95915071Y-50093619D01*
X95867452Y-50188857D01*
X95819833Y-50379333D01*
X95819833Y-50617428D01*
X95867452Y-50807904D01*
X95915071Y-50903142D01*
X95962690Y-50950761D01*
X96057928Y-50998380D01*
X96153166Y-50998380D01*
X96248404Y-50950761D01*
X96296023Y-50903142D01*
X96343642Y-50807904D01*
X96391261Y-50617428D01*
X96391261Y-50379333D01*
X96343642Y-50188857D01*
X96296023Y-50093619D01*
X96248404Y-50046000D01*
X96153166Y-49998380D01*
X94962690Y-49998380D02*
X95153166Y-49998380D01*
X95248404Y-50046000D01*
X95296023Y-50093619D01*
X95391261Y-50236476D01*
X95438880Y-50426952D01*
X95438880Y-50807904D01*
X95391261Y-50903142D01*
X95343642Y-50950761D01*
X95248404Y-50998380D01*
X95057928Y-50998380D01*
X94962690Y-50950761D01*
X94915071Y-50903142D01*
X94867452Y-50807904D01*
X94867452Y-50569809D01*
X94915071Y-50474571D01*
X94962690Y-50426952D01*
X95057928Y-50379333D01*
X95248404Y-50379333D01*
X95343642Y-50426952D01*
X95391261Y-50474571D01*
X95438880Y-50569809D01*
X94534119Y-49998380D02*
X93915071Y-49998380D01*
X94248404Y-50379333D01*
X94105547Y-50379333D01*
X94010309Y-50426952D01*
X93962690Y-50474571D01*
X93915071Y-50569809D01*
X93915071Y-50807904D01*
X93962690Y-50903142D01*
X94010309Y-50950761D01*
X94105547Y-50998380D01*
X94391261Y-50998380D01*
X94486500Y-50950761D01*
X94534119Y-50903142D01*
D11*
X85978857Y-48474285D02*
X83693142Y-48474285D01*
X84836000Y-49617142D02*
X84836000Y-47331428D01*
X109600857Y-48728285D02*
X107315142Y-48728285D01*
X108458000Y-49871142D02*
X108458000Y-47585428D01*
X109600857Y-61174285D02*
X107315142Y-61174285D01*
D14*
X85093142Y-57725000D02*
X84750285Y-58639285D01*
X84407428Y-57725000D01*
X85378857Y-57210714D02*
X85436000Y-57153571D01*
X85493142Y-57039285D01*
X85493142Y-56753571D01*
X85436000Y-56639285D01*
X85378857Y-56582142D01*
X85264571Y-56525000D01*
X85150285Y-56525000D01*
X84978857Y-56582142D01*
X84293142Y-57267857D01*
X84293142Y-56525000D01*
X84978857Y-55839285D02*
X85036000Y-55953571D01*
X85093142Y-56010714D01*
X85207428Y-56067857D01*
X85264571Y-56067857D01*
X85378857Y-56010714D01*
X85436000Y-55953571D01*
X85493142Y-55839285D01*
X85493142Y-55610714D01*
X85436000Y-55496428D01*
X85378857Y-55439285D01*
X85264571Y-55382142D01*
X85207428Y-55382142D01*
X85093142Y-55439285D01*
X85036000Y-55496428D01*
X84978857Y-55610714D01*
X84978857Y-55839285D01*
X84921714Y-55953571D01*
X84864571Y-56010714D01*
X84750285Y-56067857D01*
X84521714Y-56067857D01*
X84407428Y-56010714D01*
X84350285Y-55953571D01*
X84293142Y-55839285D01*
X84293142Y-55610714D01*
X84350285Y-55496428D01*
X84407428Y-55439285D01*
X84521714Y-55382142D01*
X84750285Y-55382142D01*
X84864571Y-55439285D01*
X84921714Y-55496428D01*
X84978857Y-55610714D01*
X85493142Y-54125000D02*
X84293142Y-53725000D01*
X85493142Y-53325000D01*
X84293142Y-52925000D02*
X85493142Y-52925000D01*
X85493142Y-52639285D01*
X85436000Y-52467857D01*
X85321714Y-52353571D01*
X85207428Y-52296428D01*
X84978857Y-52239285D01*
X84807428Y-52239285D01*
X84578857Y-52296428D01*
X84464571Y-52353571D01*
X84350285Y-52467857D01*
X84293142Y-52639285D01*
X84293142Y-52925000D01*
X84407428Y-51039285D02*
X84350285Y-51096428D01*
X84293142Y-51267857D01*
X84293142Y-51382142D01*
X84350285Y-51553571D01*
X84464571Y-51667857D01*
X84578857Y-51725000D01*
X84807428Y-51782142D01*
X84978857Y-51782142D01*
X85207428Y-51725000D01*
X85321714Y-51667857D01*
X85436000Y-51553571D01*
X85493142Y-51382142D01*
X85493142Y-51267857D01*
X85436000Y-51096428D01*
X85378857Y-51039285D01*
D10*
X112327428Y-58217142D02*
X112327428Y-57931428D01*
X112256000Y-57788571D01*
X112113142Y-57645714D01*
X111827428Y-57574285D01*
X111327428Y-57574285D01*
X111041714Y-57645714D01*
X110898857Y-57788571D01*
X110827428Y-57931428D01*
X110827428Y-58217142D01*
X110898857Y-58360000D01*
X111041714Y-58502857D01*
X111327428Y-58574285D01*
X111827428Y-58574285D01*
X112113142Y-58502857D01*
X112256000Y-58360000D01*
X112327428Y-58217142D01*
X112327428Y-56931428D02*
X111113142Y-56931428D01*
X110970285Y-56860000D01*
X110898857Y-56788571D01*
X110827428Y-56645714D01*
X110827428Y-56360000D01*
X110898857Y-56217142D01*
X110970285Y-56145714D01*
X111113142Y-56074285D01*
X112327428Y-56074285D01*
X112327428Y-55574285D02*
X112327428Y-54717142D01*
X110827428Y-55145714D02*
X112327428Y-55145714D01*
X110827428Y-54217142D02*
X112327428Y-54217142D01*
X112327428Y-53645714D01*
X112256000Y-53502857D01*
X112184571Y-53431428D01*
X112041714Y-53360000D01*
X111827428Y-53360000D01*
X111684571Y-53431428D01*
X111613142Y-53502857D01*
X111541714Y-53645714D01*
X111541714Y-54217142D01*
X112327428Y-52717142D02*
X111113142Y-52717142D01*
X110970285Y-52645714D01*
X110898857Y-52574285D01*
X110827428Y-52431428D01*
X110827428Y-52145714D01*
X110898857Y-52002857D01*
X110970285Y-51931428D01*
X111113142Y-51860000D01*
X112327428Y-51860000D01*
X112327428Y-51360000D02*
X112327428Y-50502857D01*
X110827428Y-50931428D02*
X112327428Y-50931428D01*
M02*
