M48
; DRILL file {KiCad (6.0.7)} date Sat Oct 15 23:28:07 2022
; FORMAT={-:-/ absolute / metric / decimal}
; #@! TF.CreationDate,2022-10-15T23:28:07+03:00
; #@! TF.GenerationSoftware,Kicad,Pcbnew,(6.0.7)
; #@! TF.FileFunction,MixedPlating,1,2
FMAT,2
METRIC
; #@! TA.AperFunction,Plated,PTH,ViaDrill
T1C0.400
; #@! TA.AperFunction,Plated,PTH,ComponentDrill
T2C0.700
; #@! TA.AperFunction,Plated,PTH,ComponentDrill
T3C1.100
%
G90
G05
T1
X81.026Y-55.626
X81.026Y-56.896
X81.026Y-58.166
X84.836Y-58.166
X86.106Y-58.166
X87.366Y-60.703
X87.376Y-58.166
X88.646Y-60.706
X89.51Y-47.6
X89.916Y-56.896
X89.916Y-58.166
X89.916Y-60.706
X93.447Y-48.108
X93.447Y-50.038
X94.615Y-48.108
X94.615Y-50.038
X101.346Y-59.436
X101.346Y-60.706
X102.21Y-49.479
X103.53Y-50.19
X103.886Y-59.436
X103.886Y-60.706
X106.07Y-49.022
X107.239Y-50.292
X107.29Y-52.121
X108.966Y-59.436
X108.966Y-60.706
T2
X93.805Y-56.301
X93.805Y-57.301
X93.805Y-60.301
X93.805Y-61.301
T3
X81.28Y-48.26
X81.28Y-60.96
X111.76Y-48.26
X111.76Y-60.96
T0
M30
