%TF.GenerationSoftware,KiCad,Pcbnew,(6.0.7)*%
%TF.CreationDate,2022-10-15T23:28:00+03:00*%
%TF.ProjectId,mc34063-step-down-dev-0.3,6d633334-3036-4332-9d73-7465702d646f,rev?*%
%TF.SameCoordinates,Original*%
%TF.FileFunction,Legend,Top*%
%TF.FilePolarity,Positive*%
%FSLAX46Y46*%
G04 Gerber Fmt 4.6, Leading zero omitted, Abs format (unit mm)*
G04 Created by KiCad (PCBNEW (6.0.7)) date 2022-10-15 23:28:00*
%MOMM*%
%LPD*%
G01*
G04 APERTURE LIST*
%ADD10C,0.150000*%
%ADD11C,0.471761*%
%ADD12C,0.300000*%
%ADD13C,0.100000*%
%ADD14C,0.120000*%
G04 APERTURE END LIST*
D10*
X102057200Y-51612800D02*
X102057200Y-52120800D01*
D11*
X98238720Y-52374800D02*
G75*
G03*
X98238720Y-52374800I-235880J0D01*
G01*
D10*
X102057200Y-51612800D02*
X102717600Y-52120800D01*
X94792800Y-49225200D02*
X95250000Y-49225200D01*
X95250000Y-49225200D02*
X95250000Y-49733200D01*
X95250000Y-49733200D02*
X94792800Y-49733200D01*
X94792800Y-49733200D02*
X94792800Y-49225200D01*
G36*
X94792800Y-49225200D02*
G01*
X95250000Y-49225200D01*
X95250000Y-49733200D01*
X94792800Y-49733200D01*
X94792800Y-49225200D01*
G37*
X102057200Y-51612800D02*
X102057200Y-51104800D01*
X102057200Y-51612800D02*
X101549200Y-51612800D01*
X103073200Y-51612800D02*
X102717600Y-51612800D01*
X102717600Y-51104800D02*
X102057200Y-51612800D01*
D12*
X94742000Y-51816000D02*
X94742000Y-47244000D01*
D10*
X102717600Y-51612800D02*
X102717600Y-52120800D01*
X102717600Y-51612800D02*
X102717600Y-51104800D01*
D12*
X88074571Y-49637142D02*
X89217428Y-49637142D01*
X88646000Y-50208571D02*
X88646000Y-49065714D01*
D13*
X100090285Y-49744285D02*
X100061714Y-49772857D01*
X99976000Y-49801428D01*
X99918857Y-49801428D01*
X99833142Y-49772857D01*
X99776000Y-49715714D01*
X99747428Y-49658571D01*
X99718857Y-49544285D01*
X99718857Y-49458571D01*
X99747428Y-49344285D01*
X99776000Y-49287142D01*
X99833142Y-49230000D01*
X99918857Y-49201428D01*
X99976000Y-49201428D01*
X100061714Y-49230000D01*
X100090285Y-49258571D01*
X100261714Y-49401428D02*
X100490285Y-49401428D01*
X100347428Y-49201428D02*
X100347428Y-49715714D01*
X100376000Y-49772857D01*
X100433142Y-49801428D01*
X100490285Y-49801428D01*
D14*
X104730571Y-58629428D02*
X105263904Y-58629428D01*
X104425809Y-58819904D02*
X104997238Y-59010380D01*
X104997238Y-58515142D01*
X104463904Y-58286571D02*
X104463904Y-57753238D01*
X105263904Y-58096095D01*
X104463904Y-57296095D02*
X104463904Y-57219904D01*
X104502000Y-57143714D01*
X104540095Y-57105619D01*
X104616285Y-57067523D01*
X104768666Y-57029428D01*
X104959142Y-57029428D01*
X105111523Y-57067523D01*
X105187714Y-57105619D01*
X105225809Y-57143714D01*
X105263904Y-57219904D01*
X105263904Y-57296095D01*
X105225809Y-57372285D01*
X105187714Y-57410380D01*
X105111523Y-57448476D01*
X104959142Y-57486571D01*
X104768666Y-57486571D01*
X104616285Y-57448476D01*
X104540095Y-57410380D01*
X104502000Y-57372285D01*
X104463904Y-57296095D01*
X104730571Y-56343714D02*
X105263904Y-56343714D01*
X104730571Y-56686571D02*
X105149619Y-56686571D01*
X105225809Y-56648476D01*
X105263904Y-56572285D01*
X105263904Y-56458000D01*
X105225809Y-56381809D01*
X105187714Y-56343714D01*
X85197904Y-52457238D02*
X85197904Y-52914380D01*
X85197904Y-52685809D02*
X84397904Y-52685809D01*
X84512190Y-52762000D01*
X84588380Y-52838190D01*
X84626476Y-52914380D01*
X84397904Y-51962000D02*
X84397904Y-51885809D01*
X84436000Y-51809619D01*
X84474095Y-51771523D01*
X84550285Y-51733428D01*
X84702666Y-51695333D01*
X84893142Y-51695333D01*
X85045523Y-51733428D01*
X85121714Y-51771523D01*
X85159809Y-51809619D01*
X85197904Y-51885809D01*
X85197904Y-51962000D01*
X85159809Y-52038190D01*
X85121714Y-52076285D01*
X85045523Y-52114380D01*
X84893142Y-52152476D01*
X84702666Y-52152476D01*
X84550285Y-52114380D01*
X84474095Y-52076285D01*
X84436000Y-52038190D01*
X84397904Y-51962000D01*
X84397904Y-51200095D02*
X84397904Y-51123904D01*
X84436000Y-51047714D01*
X84474095Y-51009619D01*
X84550285Y-50971523D01*
X84702666Y-50933428D01*
X84893142Y-50933428D01*
X85045523Y-50971523D01*
X85121714Y-51009619D01*
X85159809Y-51047714D01*
X85197904Y-51123904D01*
X85197904Y-51200095D01*
X85159809Y-51276285D01*
X85121714Y-51314380D01*
X85045523Y-51352476D01*
X84893142Y-51390571D01*
X84702666Y-51390571D01*
X84550285Y-51352476D01*
X84474095Y-51314380D01*
X84436000Y-51276285D01*
X84397904Y-51200095D01*
X84664571Y-50247714D02*
X85197904Y-50247714D01*
X84664571Y-50590571D02*
X85083619Y-50590571D01*
X85159809Y-50552476D01*
X85197904Y-50476285D01*
X85197904Y-50362000D01*
X85159809Y-50285809D01*
X85121714Y-50247714D01*
D13*
X94759428Y-53397142D02*
X94473714Y-53597142D01*
X94759428Y-53740000D02*
X94159428Y-53740000D01*
X94159428Y-53511428D01*
X94188000Y-53454285D01*
X94216571Y-53425714D01*
X94273714Y-53397142D01*
X94359428Y-53397142D01*
X94416571Y-53425714D01*
X94445142Y-53454285D01*
X94473714Y-53511428D01*
X94473714Y-53740000D01*
X94730857Y-53168571D02*
X94759428Y-53111428D01*
X94759428Y-52997142D01*
X94730857Y-52940000D01*
X94673714Y-52911428D01*
X94645142Y-52911428D01*
X94588000Y-52940000D01*
X94559428Y-52997142D01*
X94559428Y-53082857D01*
X94530857Y-53140000D01*
X94473714Y-53168571D01*
X94445142Y-53168571D01*
X94388000Y-53140000D01*
X94359428Y-53082857D01*
X94359428Y-52997142D01*
X94388000Y-52940000D01*
D12*
X80708571Y-50424542D02*
X81851428Y-50424542D01*
X81280000Y-50995971D02*
X81280000Y-49853114D01*
D14*
X104505142Y-50646000D02*
X104790857Y-50646000D01*
X104448000Y-50817428D02*
X104648000Y-50217428D01*
X104848000Y-50817428D01*
D12*
X108140571Y-55733142D02*
X109283428Y-55733142D01*
X108712000Y-56304571D02*
X108712000Y-55161714D01*
X100774571Y-55733142D02*
X101917428Y-55733142D01*
X101346000Y-56304571D02*
X101346000Y-55161714D01*
D10*
X110950476Y-52674780D02*
X110855238Y-52627161D01*
X110807619Y-52579542D01*
X110760000Y-52484304D01*
X110760000Y-52198590D01*
X110807619Y-52103352D01*
X110855238Y-52055733D01*
X110950476Y-52008114D01*
X111093333Y-52008114D01*
X111188571Y-52055733D01*
X111236190Y-52103352D01*
X111283809Y-52198590D01*
X111283809Y-52484304D01*
X111236190Y-52579542D01*
X111188571Y-52627161D01*
X111093333Y-52674780D01*
X110950476Y-52674780D01*
X112140952Y-52008114D02*
X112140952Y-52674780D01*
X111712380Y-52008114D02*
X111712380Y-52531923D01*
X111760000Y-52627161D01*
X111855238Y-52674780D01*
X111998095Y-52674780D01*
X112093333Y-52627161D01*
X112140952Y-52579542D01*
X112474285Y-52008114D02*
X112855238Y-52008114D01*
X112617142Y-51674780D02*
X112617142Y-52531923D01*
X112664761Y-52627161D01*
X112760000Y-52674780D01*
X112855238Y-52674780D01*
D12*
X108140571Y-59797142D02*
X109283428Y-59797142D01*
X111188571Y-50551542D02*
X112331428Y-50551542D01*
X111760000Y-51122971D02*
X111760000Y-49980114D01*
D10*
X80827619Y-52801780D02*
X80827619Y-52135114D01*
X80827619Y-51801780D02*
X80780000Y-51849400D01*
X80827619Y-51897019D01*
X80875238Y-51849400D01*
X80827619Y-51801780D01*
X80827619Y-51897019D01*
X81303809Y-52135114D02*
X81303809Y-52801780D01*
X81303809Y-52230352D02*
X81351428Y-52182733D01*
X81446666Y-52135114D01*
X81589523Y-52135114D01*
X81684761Y-52182733D01*
X81732380Y-52277971D01*
X81732380Y-52801780D01*
D12*
X100774571Y-59797142D02*
X101917428Y-59797142D01*
D14*
X97364571Y-58629428D02*
X97897904Y-58629428D01*
X97059809Y-58819904D02*
X97631238Y-59010380D01*
X97631238Y-58515142D01*
X97097904Y-58286571D02*
X97097904Y-57753238D01*
X97897904Y-58096095D01*
X97097904Y-57296095D02*
X97097904Y-57219904D01*
X97136000Y-57143714D01*
X97174095Y-57105619D01*
X97250285Y-57067523D01*
X97402666Y-57029428D01*
X97593142Y-57029428D01*
X97745523Y-57067523D01*
X97821714Y-57105619D01*
X97859809Y-57143714D01*
X97897904Y-57219904D01*
X97897904Y-57296095D01*
X97859809Y-57372285D01*
X97821714Y-57410380D01*
X97745523Y-57448476D01*
X97593142Y-57486571D01*
X97402666Y-57486571D01*
X97250285Y-57448476D01*
X97174095Y-57410380D01*
X97136000Y-57372285D01*
X97097904Y-57296095D01*
X97364571Y-56343714D02*
X97897904Y-56343714D01*
X97364571Y-56686571D02*
X97783619Y-56686571D01*
X97859809Y-56648476D01*
X97897904Y-56572285D01*
X97897904Y-56458000D01*
X97859809Y-56381809D01*
X97821714Y-56343714D01*
D12*
X88074571Y-53701142D02*
X89217428Y-53701142D01*
D14*
X99410857Y-50944428D02*
X99410857Y-50344428D01*
X99753714Y-50944428D02*
X99496571Y-50601571D01*
X99753714Y-50344428D02*
X99410857Y-50687285D01*
D13*
%TO.C,R1*%
X107900800Y-49674428D02*
X107700800Y-49388714D01*
X107557942Y-49674428D02*
X107557942Y-49074428D01*
X107786514Y-49074428D01*
X107843657Y-49103000D01*
X107872228Y-49131571D01*
X107900800Y-49188714D01*
X107900800Y-49274428D01*
X107872228Y-49331571D01*
X107843657Y-49360142D01*
X107786514Y-49388714D01*
X107557942Y-49388714D01*
X108472228Y-49674428D02*
X108129371Y-49674428D01*
X108300800Y-49674428D02*
X108300800Y-49074428D01*
X108243657Y-49160142D01*
X108186514Y-49217285D01*
X108129371Y-49245857D01*
%TO.C,R2*%
X103963800Y-49674428D02*
X103763800Y-49388714D01*
X103620942Y-49674428D02*
X103620942Y-49074428D01*
X103849514Y-49074428D01*
X103906657Y-49103000D01*
X103935228Y-49131571D01*
X103963800Y-49188714D01*
X103963800Y-49274428D01*
X103935228Y-49331571D01*
X103906657Y-49360142D01*
X103849514Y-49388714D01*
X103620942Y-49388714D01*
X104192371Y-49131571D02*
X104220942Y-49103000D01*
X104278085Y-49074428D01*
X104420942Y-49074428D01*
X104478085Y-49103000D01*
X104506657Y-49131571D01*
X104535228Y-49188714D01*
X104535228Y-49245857D01*
X104506657Y-49331571D01*
X104163800Y-49674428D01*
X104535228Y-49674428D01*
D14*
%TO.C,Co1*%
X101212300Y-53322100D02*
X101212300Y-54109600D01*
X95954800Y-55414037D02*
X95954800Y-61169600D01*
X102774800Y-55414037D02*
X102774800Y-61169600D01*
X101710363Y-54349600D02*
X102774800Y-55414037D01*
X97019237Y-54349600D02*
X98304800Y-54349600D01*
X97019237Y-54349600D02*
X95954800Y-55414037D01*
X95954800Y-61169600D02*
X98304800Y-61169600D01*
X102774800Y-61169600D02*
X100424800Y-61169600D01*
X101710363Y-54349600D02*
X100424800Y-54349600D01*
X101606050Y-53715850D02*
X100818550Y-53715850D01*
%TO.C,D1*%
X100112000Y-50612800D02*
X100112000Y-52612800D01*
X100112000Y-50612800D02*
X104012000Y-50612800D01*
X100112000Y-52612800D02*
X104012000Y-52612800D01*
%TO.C,Ct1*%
X99313948Y-47096000D02*
X100736452Y-47096000D01*
X99313948Y-48916000D02*
X100736452Y-48916000D01*
%TO.C,Co4*%
X110748400Y-55676748D02*
X110748400Y-57099252D01*
X112568400Y-55676748D02*
X112568400Y-57099252D01*
%TO.C,U2*%
X83055000Y-55301000D02*
X83055000Y-62301000D01*
X83055000Y-62301000D02*
X93055000Y-62301000D01*
%TO.C,Co3*%
X108153252Y-52522800D02*
X106730748Y-52522800D01*
X108153252Y-50702800D02*
X106730748Y-50702800D01*
%TO.C,Ci1*%
X84217637Y-48025000D02*
X83153200Y-49089437D01*
X88908763Y-48025000D02*
X89973200Y-49089437D01*
X88804450Y-47391250D02*
X88016950Y-47391250D01*
X84217637Y-48025000D02*
X85503200Y-48025000D01*
X89973200Y-54845000D02*
X87623200Y-54845000D01*
X89973200Y-49089437D02*
X89973200Y-54845000D01*
X83153200Y-54845000D02*
X85503200Y-54845000D01*
X83153200Y-49089437D02*
X83153200Y-54845000D01*
X88908763Y-48025000D02*
X87623200Y-48025000D01*
X88410700Y-46997500D02*
X88410700Y-47785000D01*
%TO.C,Co2*%
X108451300Y-53322100D02*
X108451300Y-54109600D01*
X103193800Y-55414037D02*
X103193800Y-61169600D01*
X104258237Y-54349600D02*
X105543800Y-54349600D01*
X108845050Y-53715850D02*
X108057550Y-53715850D01*
X103193800Y-61169600D02*
X105543800Y-61169600D01*
X104258237Y-54349600D02*
X103193800Y-55414037D01*
X108949363Y-54349600D02*
X110013800Y-55414037D01*
X110013800Y-61169600D02*
X107663800Y-61169600D01*
X108949363Y-54349600D02*
X107663800Y-54349600D01*
X110013800Y-55414037D02*
X110013800Y-61169600D01*
%TO.C,R1*%
X108227864Y-48690200D02*
X107773736Y-48690200D01*
X108227864Y-47220200D02*
X107773736Y-47220200D01*
%TO.C,U1*%
X93980000Y-46970000D02*
X92030000Y-46970000D01*
X93980000Y-52090000D02*
X97430000Y-52090000D01*
X93980000Y-52090000D02*
X92030000Y-52090000D01*
X93980000Y-46970000D02*
X95930000Y-46970000D01*
%TO.C,R2*%
X104290864Y-47220200D02*
X103836736Y-47220200D01*
X104290864Y-48690200D02*
X103836736Y-48690200D01*
%TO.C,RSC1*%
X91873336Y-52605000D02*
X92327464Y-52605000D01*
X91873336Y-54075000D02*
X92327464Y-54075000D01*
%TD*%
M02*
