%TF.GenerationSoftware,KiCad,Pcbnew,(6.0.7)*%
%TF.CreationDate,2022-10-15T23:28:00+03:00*%
%TF.ProjectId,mc34063-step-down-dev-0.3,6d633334-3036-4332-9d73-7465702d646f,rev?*%
%TF.SameCoordinates,Original*%
%TF.FileFunction,Copper,L1,Top*%
%TF.FilePolarity,Positive*%
%FSLAX46Y46*%
G04 Gerber Fmt 4.6, Leading zero omitted, Abs format (unit mm)*
G04 Created by KiCad (PCBNEW (6.0.7)) date 2022-10-15 23:28:00*
%MOMM*%
%LPD*%
G01*
G04 APERTURE LIST*
G04 Aperture macros list*
%AMRoundRect*
0 Rectangle with rounded corners*
0 $1 Rounding radius*
0 $2 $3 $4 $5 $6 $7 $8 $9 X,Y pos of 4 corners*
0 Add a 4 corners polygon primitive as box body*
4,1,4,$2,$3,$4,$5,$6,$7,$8,$9,$2,$3,0*
0 Add four circle primitives for the rounded corners*
1,1,$1+$1,$2,$3*
1,1,$1+$1,$4,$5*
1,1,$1+$1,$6,$7*
1,1,$1+$1,$8,$9*
0 Add four rect primitives between the rounded corners*
20,1,$1+$1,$2,$3,$4,$5,0*
20,1,$1+$1,$4,$5,$6,$7,0*
20,1,$1+$1,$6,$7,$8,$9,0*
20,1,$1+$1,$8,$9,$2,$3,0*%
G04 Aperture macros list end*
%TA.AperFunction,ComponentPad*%
%ADD10R,2.500000X2.500000*%
%TD*%
%TA.AperFunction,SMDPad,CuDef*%
%ADD11RoundRect,0.250000X-0.550000X1.500000X-0.550000X-1.500000X0.550000X-1.500000X0.550000X1.500000X0*%
%TD*%
%TA.AperFunction,SMDPad,CuDef*%
%ADD12R,0.900000X1.200000*%
%TD*%
%TA.AperFunction,SMDPad,CuDef*%
%ADD13RoundRect,0.250000X-0.325000X-0.650000X0.325000X-0.650000X0.325000X0.650000X-0.325000X0.650000X0*%
%TD*%
%TA.AperFunction,SMDPad,CuDef*%
%ADD14RoundRect,0.250000X-0.650000X0.325000X-0.650000X-0.325000X0.650000X-0.325000X0.650000X0.325000X0*%
%TD*%
%TA.AperFunction,ComponentPad*%
%ADD15C,2.000000*%
%TD*%
%TA.AperFunction,SMDPad,CuDef*%
%ADD16RoundRect,0.250000X0.325000X0.650000X-0.325000X0.650000X-0.325000X-0.650000X0.325000X-0.650000X0*%
%TD*%
%TA.AperFunction,SMDPad,CuDef*%
%ADD17RoundRect,0.250000X0.262500X0.450000X-0.262500X0.450000X-0.262500X-0.450000X0.262500X-0.450000X0*%
%TD*%
%TA.AperFunction,SMDPad,CuDef*%
%ADD18RoundRect,0.150000X0.825000X0.150000X-0.825000X0.150000X-0.825000X-0.150000X0.825000X-0.150000X0*%
%TD*%
%TA.AperFunction,SMDPad,CuDef*%
%ADD19RoundRect,0.250000X-0.262500X-0.450000X0.262500X-0.450000X0.262500X0.450000X-0.262500X0.450000X0*%
%TD*%
%TA.AperFunction,ViaPad*%
%ADD20C,0.800000*%
%TD*%
%TA.AperFunction,Conductor*%
%ADD21C,0.600000*%
%TD*%
G04 APERTURE END LIST*
D10*
%TO.P,U5,1*%
%TO.N,Net-(Co1-Pad1)*%
X111760000Y-48260000D03*
%TD*%
D11*
%TO.P,Co1,1*%
%TO.N,Net-(Co1-Pad1)*%
X99364800Y-55059600D03*
%TO.P,Co1,2*%
%TO.N,GND*%
X99364800Y-60459600D03*
%TD*%
D12*
%TO.P,D1,1,K*%
%TO.N,Net-(D1-Pad1)*%
X100712000Y-51612800D03*
%TO.P,D1,2,A*%
%TO.N,GND*%
X104012000Y-51612800D03*
%TD*%
D13*
%TO.P,Ct1,1*%
%TO.N,Net-(Ct1-Pad1)*%
X98550200Y-48006000D03*
%TO.P,Ct1,2*%
%TO.N,GND*%
X101500200Y-48006000D03*
%TD*%
D14*
%TO.P,Co4,1*%
%TO.N,Net-(Co1-Pad1)*%
X111658400Y-54913000D03*
%TO.P,Co4,2*%
%TO.N,GND*%
X111658400Y-57863000D03*
%TD*%
D15*
%TO.P,U2,1*%
%TO.N,Net-(Co1-Pad1)*%
X93805000Y-61301000D03*
X93805000Y-60301000D03*
%TO.P,U2,2*%
%TO.N,Net-(D1-Pad1)*%
X93805000Y-56301000D03*
X93805000Y-57301000D03*
%TD*%
D16*
%TO.P,Co3,1*%
%TO.N,Net-(Co1-Pad1)*%
X108917000Y-51612800D03*
%TO.P,Co3,2*%
%TO.N,GND*%
X105967000Y-51612800D03*
%TD*%
D11*
%TO.P,Ci1,1*%
%TO.N,Net-(Ci1-Pad1)*%
X86563200Y-48735000D03*
%TO.P,Ci1,2*%
%TO.N,GND*%
X86563200Y-54135000D03*
%TD*%
%TO.P,Co2,1*%
%TO.N,Net-(Co1-Pad1)*%
X106603800Y-55059600D03*
%TO.P,Co2,2*%
%TO.N,GND*%
X106603800Y-60459600D03*
%TD*%
D17*
%TO.P,R1,1*%
%TO.N,Net-(Co1-Pad1)*%
X108913300Y-47955200D03*
%TO.P,R1,2*%
%TO.N,/Vfeedback*%
X107088300Y-47955200D03*
%TD*%
D18*
%TO.P,U1,1,SwC*%
%TO.N,/Sense*%
X96455000Y-51435000D03*
%TO.P,U1,2,SwE*%
%TO.N,Net-(D1-Pad1)*%
X96455000Y-50165000D03*
%TO.P,U1,3,TC*%
%TO.N,Net-(Ct1-Pad1)*%
X96455000Y-48895000D03*
%TO.P,U1,4,GND*%
%TO.N,GND*%
X96455000Y-47625000D03*
%TO.P,U1,5,Vfb*%
%TO.N,/Vfeedback*%
X91505000Y-47625000D03*
%TO.P,U1,6,Vin*%
%TO.N,Net-(Ci1-Pad1)*%
X91505000Y-48895000D03*
%TO.P,U1,7,Ipk*%
%TO.N,/Sense*%
X91505000Y-50165000D03*
%TO.P,U1,8,DC*%
X91505000Y-51435000D03*
%TD*%
D10*
%TO.P,U3,1*%
%TO.N,Net-(Ci1-Pad1)*%
X81280000Y-48260000D03*
%TD*%
D17*
%TO.P,R2,1*%
%TO.N,/Vfeedback*%
X104976300Y-47955200D03*
%TO.P,R2,2*%
%TO.N,GND*%
X103151300Y-47955200D03*
%TD*%
D10*
%TO.P,U4,1*%
%TO.N,GND*%
X81280000Y-60960000D03*
%TD*%
D19*
%TO.P,RSC1,1*%
%TO.N,Net-(Ci1-Pad1)*%
X91187900Y-53340000D03*
%TO.P,RSC1,2*%
%TO.N,/Sense*%
X93012900Y-53340000D03*
%TD*%
D10*
%TO.P,U6,1*%
%TO.N,GND*%
X111760000Y-60960000D03*
%TD*%
D20*
%TO.N,GND*%
X89916000Y-58166000D03*
X86106000Y-58166000D03*
X89916000Y-56896000D03*
X101346000Y-59436000D03*
X102209600Y-49479200D03*
X87366424Y-60702782D03*
X101346000Y-60706000D03*
X103530400Y-50190400D03*
X81026000Y-58166000D03*
X87376000Y-58166000D03*
X103886000Y-59436000D03*
X93446600Y-50038000D03*
X89916000Y-60706000D03*
X108966000Y-59436000D03*
X94615000Y-50038000D03*
X88646000Y-60706000D03*
X94615000Y-48107600D03*
X84836000Y-58166000D03*
X107238800Y-50292000D03*
X108966000Y-60706000D03*
X103886000Y-60706000D03*
X107289600Y-52120800D03*
X81026000Y-56896000D03*
X81026000Y-55626000D03*
X93446600Y-48107600D03*
%TO.N,/Vfeedback*%
X89509600Y-47599600D03*
X106070400Y-49022000D03*
%TD*%
D21*
%TO.N,Net-(Ct1-Pad1)*%
X97661200Y-48895000D02*
X98550200Y-48006000D01*
X96455000Y-48895000D02*
X97661200Y-48895000D01*
%TO.N,/Vfeedback*%
X91505000Y-47625000D02*
X89535000Y-47625000D01*
X89535000Y-47625000D02*
X89509600Y-47599600D01*
%TD*%
%TA.AperFunction,Conductor*%
%TO.N,/Vfeedback*%
G36*
X107815921Y-47187802D02*
G01*
X107862414Y-47241458D01*
X107873800Y-47293800D01*
X107873800Y-49226200D01*
X107853798Y-49294321D01*
X107800142Y-49340814D01*
X107747800Y-49352200D01*
X104443800Y-49352200D01*
X104375679Y-49332198D01*
X104329186Y-49278542D01*
X104317800Y-49226200D01*
X104317800Y-47293800D01*
X104337802Y-47225679D01*
X104391458Y-47179186D01*
X104443800Y-47167800D01*
X107747800Y-47167800D01*
X107815921Y-47187802D01*
G37*
%TD.AperFunction*%
%TD*%
%TA.AperFunction,Conductor*%
%TO.N,/Sense*%
G36*
X92398121Y-49804002D02*
G01*
X92444614Y-49857658D01*
X92456000Y-49910000D01*
X92456000Y-51054000D01*
X97257600Y-51054000D01*
X97325721Y-51074002D01*
X97372214Y-51127658D01*
X97383600Y-51180000D01*
X97383600Y-51690000D01*
X97363598Y-51758121D01*
X97309942Y-51804614D01*
X97257600Y-51816000D01*
X93776800Y-51816000D01*
X93776800Y-54052200D01*
X93756798Y-54120321D01*
X93703142Y-54166814D01*
X93650800Y-54178200D01*
X92582000Y-54178200D01*
X92513879Y-54158198D01*
X92467386Y-54104542D01*
X92456000Y-54052200D01*
X92456000Y-51816000D01*
X90651600Y-51816000D01*
X90583479Y-51795998D01*
X90536986Y-51742342D01*
X90525600Y-51690000D01*
X90525600Y-49910000D01*
X90545602Y-49841879D01*
X90599258Y-49795386D01*
X90651600Y-49784000D01*
X92330000Y-49784000D01*
X92398121Y-49804002D01*
G37*
%TD.AperFunction*%
%TD*%
%TA.AperFunction,Conductor*%
%TO.N,Net-(Co1-Pad1)*%
G36*
X112926539Y-47056185D02*
G01*
X112972294Y-47108989D01*
X112983500Y-47160500D01*
X112983500Y-55502000D01*
X112963815Y-55569039D01*
X112911011Y-55614794D01*
X112859500Y-55626000D01*
X110236000Y-55626000D01*
X110236000Y-57788000D01*
X110216315Y-57855039D01*
X110163511Y-57900794D01*
X110112000Y-57912000D01*
X98171000Y-57912000D01*
X97612200Y-58547000D01*
X97612200Y-62059500D01*
X97592515Y-62126539D01*
X97539711Y-62172294D01*
X97488200Y-62183500D01*
X92453000Y-62183500D01*
X92385961Y-62163815D01*
X92340206Y-62111011D01*
X92329000Y-62059500D01*
X92329000Y-58925000D01*
X92348685Y-58857961D01*
X92401489Y-58812206D01*
X92453000Y-58801000D01*
X94996000Y-58801000D01*
X95165334Y-58547000D01*
X96255815Y-56911277D01*
X96266000Y-56896000D01*
X96266000Y-55957760D01*
X96285685Y-55890721D01*
X96303528Y-55868886D01*
X97169699Y-55026126D01*
X97231474Y-54993484D01*
X97256170Y-54991000D01*
X98806000Y-54991000D01*
X98806000Y-53210000D01*
X98825685Y-53142961D01*
X98878489Y-53097206D01*
X98930000Y-53086000D01*
X108077000Y-53086000D01*
X108585000Y-52578000D01*
X108585000Y-47160500D01*
X108604685Y-47093461D01*
X108657489Y-47047706D01*
X108709000Y-47036500D01*
X112859500Y-47036500D01*
X112926539Y-47056185D01*
G37*
%TD.AperFunction*%
%TD*%
%TA.AperFunction,Conductor*%
%TO.N,GND*%
G36*
X112959000Y-56280962D02*
G01*
X113013538Y-56335500D01*
X113033500Y-56410000D01*
X113033500Y-62084500D01*
X113013538Y-62159000D01*
X112959000Y-62213538D01*
X112884500Y-62233500D01*
X98574000Y-62233500D01*
X98499500Y-62213538D01*
X98444962Y-62159000D01*
X98425000Y-62084500D01*
X98425000Y-58772200D01*
X98444962Y-58697700D01*
X98499500Y-58643162D01*
X98574000Y-58623200D01*
X110744000Y-58623200D01*
X110744000Y-56410000D01*
X110763962Y-56335500D01*
X110818500Y-56280962D01*
X110893000Y-56261000D01*
X112884500Y-56261000D01*
X112959000Y-56280962D01*
G37*
%TD.AperFunction*%
%TD*%
%TA.AperFunction,Conductor*%
%TO.N,Net-(Ci1-Pad1)*%
G36*
X87657100Y-47006462D02*
G01*
X87711638Y-47061000D01*
X87731600Y-47135500D01*
X87731600Y-48437800D01*
X92307000Y-48437800D01*
X92381500Y-48457762D01*
X92436038Y-48512300D01*
X92456000Y-48586800D01*
X92456000Y-49254000D01*
X92436038Y-49328500D01*
X92381500Y-49383038D01*
X92307000Y-49403000D01*
X89916000Y-49403000D01*
X89916000Y-52628800D01*
X91595800Y-52628800D01*
X91670300Y-52648762D01*
X91724838Y-52703300D01*
X91744800Y-52777800D01*
X91744800Y-53902200D01*
X91724838Y-53976700D01*
X91670300Y-54031238D01*
X91595800Y-54051200D01*
X88287000Y-54051200D01*
X88212500Y-54031238D01*
X88157962Y-53976700D01*
X88138000Y-53902200D01*
X88138000Y-51943000D01*
X80155500Y-51943000D01*
X80081000Y-51923038D01*
X80026462Y-51868500D01*
X80006500Y-51794000D01*
X80006500Y-47135500D01*
X80026462Y-47061000D01*
X80081000Y-47006462D01*
X80155500Y-46986500D01*
X87582600Y-46986500D01*
X87657100Y-47006462D01*
G37*
%TD.AperFunction*%
%TD*%
%TA.AperFunction,Conductor*%
%TO.N,GND*%
G36*
X87555500Y-52597962D02*
G01*
X87610038Y-52652500D01*
X87630000Y-52727000D01*
X87630000Y-54737000D01*
X91672000Y-54737000D01*
X91746500Y-54756962D01*
X91801038Y-54811500D01*
X91821000Y-54886000D01*
X91821000Y-62084500D01*
X91801038Y-62159000D01*
X91746500Y-62213538D01*
X91672000Y-62233500D01*
X80155500Y-62233500D01*
X80081000Y-62213538D01*
X80026462Y-62159000D01*
X80006500Y-62084500D01*
X80006500Y-52727000D01*
X80026462Y-52652500D01*
X80081000Y-52597962D01*
X80155500Y-52578000D01*
X87481000Y-52578000D01*
X87555500Y-52597962D01*
G37*
%TD.AperFunction*%
%TD*%
%TA.AperFunction,Conductor*%
%TO.N,Net-(D1-Pad1)*%
G36*
X101373100Y-49803962D02*
G01*
X101427638Y-49858500D01*
X101447600Y-49933000D01*
X101447600Y-52556000D01*
X101427638Y-52630500D01*
X101373100Y-52685038D01*
X101298600Y-52705000D01*
X98526600Y-52705000D01*
X98323400Y-52882800D01*
X98044000Y-53162200D01*
X98044000Y-54410200D01*
X98024038Y-54484700D01*
X97969500Y-54539238D01*
X97895000Y-54559200D01*
X96240600Y-54559200D01*
X95631000Y-55168800D01*
X95631000Y-56190218D01*
X95611038Y-56264718D01*
X95605703Y-56273276D01*
X94481475Y-57947658D01*
X94423373Y-57998382D01*
X94357772Y-58013600D01*
X92503400Y-58013600D01*
X92428900Y-57993638D01*
X92374362Y-57939100D01*
X92354400Y-57864600D01*
X92354400Y-54886000D01*
X92374362Y-54811500D01*
X92428900Y-54756962D01*
X92503400Y-54737000D01*
X94259400Y-54737000D01*
X94259400Y-52320600D01*
X94279362Y-52246100D01*
X94333900Y-52191562D01*
X94408400Y-52171600D01*
X97586800Y-52171600D01*
X97891600Y-51917600D01*
X97891600Y-50596800D01*
X95627600Y-50596800D01*
X95553100Y-50576838D01*
X95498562Y-50522300D01*
X95478600Y-50447800D01*
X95478600Y-49933000D01*
X95498562Y-49858500D01*
X95553100Y-49803962D01*
X95627600Y-49784000D01*
X101298600Y-49784000D01*
X101373100Y-49803962D01*
G37*
%TD.AperFunction*%
%TD*%
%TA.AperFunction,Conductor*%
%TO.N,GND*%
G36*
X97650200Y-47187762D02*
G01*
X97704738Y-47242300D01*
X97724700Y-47316800D01*
X97724701Y-47933200D01*
X97704739Y-48007700D01*
X97650201Y-48062238D01*
X97575701Y-48082200D01*
X95199200Y-48082200D01*
X95199200Y-50498600D01*
X95179238Y-50573100D01*
X95124700Y-50627638D01*
X95050200Y-50647600D01*
X92909800Y-50647600D01*
X92835300Y-50627638D01*
X92780762Y-50573100D01*
X92760800Y-50498600D01*
X92760800Y-47316800D01*
X92780762Y-47242300D01*
X92835300Y-47187762D01*
X92909800Y-47167800D01*
X97575700Y-47167800D01*
X97650200Y-47187762D01*
G37*
%TD.AperFunction*%
%TD*%
%TA.AperFunction,Conductor*%
%TO.N,GND*%
G36*
X103659100Y-47187762D02*
G01*
X103713638Y-47242300D01*
X103733600Y-47316800D01*
X103733600Y-49758600D01*
X107597800Y-49758600D01*
X107672300Y-49778562D01*
X107726838Y-49833100D01*
X107746800Y-49907600D01*
X107746800Y-52556000D01*
X107726838Y-52630500D01*
X107672300Y-52685038D01*
X107597800Y-52705000D01*
X101901400Y-52705000D01*
X101826900Y-52685038D01*
X101772362Y-52630500D01*
X101752400Y-52556000D01*
X101752400Y-49301400D01*
X100936200Y-49301400D01*
X100861700Y-49281438D01*
X100807162Y-49226900D01*
X100787200Y-49152400D01*
X100787200Y-47316800D01*
X100807162Y-47242300D01*
X100861700Y-47187762D01*
X100936200Y-47167800D01*
X103584600Y-47167800D01*
X103659100Y-47187762D01*
G37*
%TD.AperFunction*%
%TD*%
M02*
