%TF.GenerationSoftware,KiCad,Pcbnew,(6.0.7)*%
%TF.CreationDate,2022-10-15T23:28:00+03:00*%
%TF.ProjectId,mc34063-step-down-dev-0.3,6d633334-3036-4332-9d73-7465702d646f,rev?*%
%TF.SameCoordinates,Original*%
%TF.FileFunction,Copper,L2,Bot*%
%TF.FilePolarity,Positive*%
%FSLAX46Y46*%
G04 Gerber Fmt 4.6, Leading zero omitted, Abs format (unit mm)*
G04 Created by KiCad (PCBNEW (6.0.7)) date 2022-10-15 23:28:00*
%MOMM*%
%LPD*%
G01*
G04 APERTURE LIST*
%TA.AperFunction,ComponentPad*%
%ADD10R,2.500000X2.500000*%
%TD*%
%TA.AperFunction,ComponentPad*%
%ADD11C,2.000000*%
%TD*%
%TA.AperFunction,ViaPad*%
%ADD12C,0.800000*%
%TD*%
%TA.AperFunction,Conductor*%
%ADD13C,0.450000*%
%TD*%
G04 APERTURE END LIST*
D10*
%TO.P,U5,1*%
%TO.N,Net-(Co1-Pad1)*%
X111760000Y-48260000D03*
%TD*%
D11*
%TO.P,U2,1*%
%TO.N,Net-(Co1-Pad1)*%
X93805000Y-61301000D03*
X93805000Y-60301000D03*
%TO.P,U2,2*%
%TO.N,Net-(D1-Pad1)*%
X93805000Y-56301000D03*
X93805000Y-57301000D03*
%TD*%
D10*
%TO.P,U3,1*%
%TO.N,Net-(Ci1-Pad1)*%
X81280000Y-48260000D03*
%TD*%
%TO.P,U4,1*%
%TO.N,GND*%
X81280000Y-60960000D03*
%TD*%
%TO.P,U6,1*%
%TO.N,GND*%
X111760000Y-60960000D03*
%TD*%
D12*
%TO.N,GND*%
X89916000Y-58166000D03*
X86106000Y-58166000D03*
X89916000Y-56896000D03*
X101346000Y-59436000D03*
X102209600Y-49479200D03*
X87366424Y-60702782D03*
X101346000Y-60706000D03*
X103530400Y-50190400D03*
X81026000Y-58166000D03*
X87376000Y-58166000D03*
X103886000Y-59436000D03*
X93446600Y-50038000D03*
X89916000Y-60706000D03*
X108966000Y-59436000D03*
X94615000Y-50038000D03*
X88646000Y-60706000D03*
X94615000Y-48107600D03*
X84836000Y-58166000D03*
X107238800Y-50292000D03*
X108966000Y-60706000D03*
X103886000Y-60706000D03*
X107289600Y-52120800D03*
X81026000Y-56896000D03*
X81026000Y-55626000D03*
X93446600Y-48107600D03*
%TO.N,/Vfeedback*%
X89509600Y-47599600D03*
X106070400Y-49022000D03*
%TD*%
D13*
%TO.N,/Vfeedback*%
X89890600Y-47218600D02*
X105613200Y-47218600D01*
X106070400Y-47675800D02*
X106070400Y-49022000D01*
X105613200Y-47218600D02*
X106070400Y-47675800D01*
X89509600Y-47599600D02*
X89890600Y-47218600D01*
%TD*%
%TA.AperFunction,Conductor*%
%TO.N,GND*%
G36*
X88933031Y-47006462D02*
G01*
X88987569Y-47061000D01*
X89007531Y-47135500D01*
X88987569Y-47210000D01*
X88980436Y-47221175D01*
X88932101Y-47289948D01*
X88928838Y-47298316D01*
X88928838Y-47298317D01*
X88922803Y-47313796D01*
X88874909Y-47436639D01*
X88873736Y-47445545D01*
X88873736Y-47445547D01*
X88862445Y-47531308D01*
X88854358Y-47592738D01*
X88855344Y-47601669D01*
X88855344Y-47601670D01*
X88866612Y-47703732D01*
X88871635Y-47749233D01*
X88925743Y-47897090D01*
X89013558Y-48027772D01*
X89020200Y-48033815D01*
X89020201Y-48033817D01*
X89079539Y-48087810D01*
X89130010Y-48133735D01*
X89268376Y-48208862D01*
X89323540Y-48223334D01*
X89411984Y-48246537D01*
X89411988Y-48246537D01*
X89420669Y-48248815D01*
X89578095Y-48251288D01*
X89628631Y-48239714D01*
X89722810Y-48218144D01*
X89722811Y-48218144D01*
X89731568Y-48216138D01*
X89739595Y-48212101D01*
X89864199Y-48149432D01*
X89864201Y-48149431D01*
X89872225Y-48145395D01*
X89991948Y-48043142D01*
X89998649Y-48033817D01*
X90078581Y-47922580D01*
X90078582Y-47922577D01*
X90083824Y-47915283D01*
X90087174Y-47906949D01*
X90087177Y-47906944D01*
X90135184Y-47787524D01*
X90181493Y-47725846D01*
X90252437Y-47695586D01*
X90273431Y-47694100D01*
X105354524Y-47694100D01*
X105429024Y-47714062D01*
X105459883Y-47737741D01*
X105551259Y-47829117D01*
X105589823Y-47895912D01*
X105594900Y-47934476D01*
X105594900Y-48520096D01*
X105574938Y-48594596D01*
X105567804Y-48605772D01*
X105492901Y-48712348D01*
X105435709Y-48859039D01*
X105415158Y-49015138D01*
X105416144Y-49024069D01*
X105416144Y-49024070D01*
X105417431Y-49035723D01*
X105432435Y-49171633D01*
X105486543Y-49319490D01*
X105574358Y-49450172D01*
X105581000Y-49456215D01*
X105581001Y-49456217D01*
X105640339Y-49510210D01*
X105690810Y-49556135D01*
X105829176Y-49631262D01*
X105884340Y-49645734D01*
X105972784Y-49668937D01*
X105972788Y-49668937D01*
X105981469Y-49671215D01*
X106138895Y-49673688D01*
X106189431Y-49662114D01*
X106283610Y-49640544D01*
X106283611Y-49640544D01*
X106292368Y-49638538D01*
X106300395Y-49634501D01*
X106424999Y-49571832D01*
X106425001Y-49571831D01*
X106433025Y-49567795D01*
X106552748Y-49465542D01*
X106559449Y-49456217D01*
X106639381Y-49344980D01*
X106639382Y-49344977D01*
X106644624Y-49337683D01*
X106703350Y-49191598D01*
X106725534Y-49035723D01*
X106725678Y-49022000D01*
X106706763Y-48865694D01*
X106682418Y-48801266D01*
X106654285Y-48726813D01*
X106654283Y-48726809D01*
X106651110Y-48718412D01*
X106572106Y-48603461D01*
X106546359Y-48530758D01*
X106545900Y-48519067D01*
X106545900Y-47743083D01*
X106546380Y-47731134D01*
X106546899Y-47724679D01*
X106549242Y-47714326D01*
X106548080Y-47695586D01*
X106546186Y-47665068D01*
X106545900Y-47655842D01*
X106545900Y-47641655D01*
X106544689Y-47633197D01*
X106543472Y-47621318D01*
X106542253Y-47601670D01*
X106540808Y-47578383D01*
X106537204Y-47568399D01*
X106535432Y-47559843D01*
X106532986Y-47551479D01*
X106531481Y-47540971D01*
X106513669Y-47501795D01*
X106509161Y-47490721D01*
X106498162Y-47460254D01*
X106494558Y-47450270D01*
X106488297Y-47441699D01*
X106484198Y-47433990D01*
X106479501Y-47426645D01*
X106475106Y-47416980D01*
X106447011Y-47384374D01*
X106439595Y-47375035D01*
X106432823Y-47365764D01*
X106423376Y-47356317D01*
X106415858Y-47348220D01*
X106393125Y-47321837D01*
X106393124Y-47321836D01*
X106386196Y-47313796D01*
X106377288Y-47308022D01*
X106369291Y-47301046D01*
X106369602Y-47300690D01*
X106359896Y-47292837D01*
X106307918Y-47240859D01*
X106269354Y-47174064D01*
X106269354Y-47096936D01*
X106307918Y-47030141D01*
X106374713Y-46991577D01*
X106413277Y-46986500D01*
X110110500Y-46986500D01*
X110185000Y-47006462D01*
X110239538Y-47061000D01*
X110259500Y-47135500D01*
X110259500Y-49534674D01*
X110274034Y-49607740D01*
X110329399Y-49690601D01*
X110412260Y-49745966D01*
X110485326Y-49760500D01*
X112884500Y-49760500D01*
X112959000Y-49780462D01*
X113013538Y-49835000D01*
X113033500Y-49909500D01*
X113033500Y-62084500D01*
X113013538Y-62159000D01*
X112959000Y-62213538D01*
X112884500Y-62233500D01*
X94964862Y-62233500D01*
X94890362Y-62213538D01*
X94835824Y-62159000D01*
X94815862Y-62084500D01*
X94835824Y-62010000D01*
X94842808Y-61999037D01*
X94888369Y-61933969D01*
X94892102Y-61928638D01*
X94984575Y-61730330D01*
X95041207Y-61518977D01*
X95060277Y-61301000D01*
X95041207Y-61083023D01*
X94984575Y-60871670D01*
X94980987Y-60863975D01*
X94980814Y-60862992D01*
X94979601Y-60859661D01*
X94980188Y-60859447D01*
X94967590Y-60788021D01*
X94979810Y-60742415D01*
X94979601Y-60742339D01*
X94980472Y-60739946D01*
X94980987Y-60738024D01*
X94984575Y-60730330D01*
X95041207Y-60518977D01*
X95060277Y-60301000D01*
X95041207Y-60083023D01*
X94984575Y-59871670D01*
X94892102Y-59673362D01*
X94766598Y-59494123D01*
X94611877Y-59339402D01*
X94432639Y-59213898D01*
X94234330Y-59121425D01*
X94228049Y-59119742D01*
X94029256Y-59066475D01*
X94029251Y-59066474D01*
X94022977Y-59064793D01*
X94016506Y-59064227D01*
X94016501Y-59064226D01*
X93811481Y-59046290D01*
X93805000Y-59045723D01*
X93798519Y-59046290D01*
X93593499Y-59064226D01*
X93593494Y-59064227D01*
X93587023Y-59064793D01*
X93580749Y-59066474D01*
X93580744Y-59066475D01*
X93381951Y-59119742D01*
X93375670Y-59121425D01*
X93177362Y-59213898D01*
X93172034Y-59217629D01*
X93172030Y-59217631D01*
X93066057Y-59291834D01*
X92998123Y-59339402D01*
X92843402Y-59494123D01*
X92717898Y-59673362D01*
X92625425Y-59871670D01*
X92568793Y-60083023D01*
X92549723Y-60301000D01*
X92568793Y-60518977D01*
X92625425Y-60730330D01*
X92629013Y-60738024D01*
X92629186Y-60739008D01*
X92630399Y-60742339D01*
X92629812Y-60742553D01*
X92642410Y-60813979D01*
X92630190Y-60859585D01*
X92630399Y-60859661D01*
X92629528Y-60862054D01*
X92629013Y-60863975D01*
X92625425Y-60871670D01*
X92568793Y-61083023D01*
X92549723Y-61301000D01*
X92568793Y-61518977D01*
X92625425Y-61730330D01*
X92717898Y-61928638D01*
X92721631Y-61933969D01*
X92767192Y-61999037D01*
X92793571Y-62071514D01*
X92780178Y-62147470D01*
X92730601Y-62206554D01*
X92658124Y-62232933D01*
X92645138Y-62233500D01*
X80155500Y-62233500D01*
X80081000Y-62213538D01*
X80026462Y-62159000D01*
X80006500Y-62084500D01*
X80006500Y-57301000D01*
X92549723Y-57301000D01*
X92568793Y-57518977D01*
X92625425Y-57730330D01*
X92717898Y-57928638D01*
X92843402Y-58107877D01*
X92998123Y-58262598D01*
X93177361Y-58388102D01*
X93375670Y-58480575D01*
X93381951Y-58482258D01*
X93580744Y-58535525D01*
X93580749Y-58535526D01*
X93587023Y-58537207D01*
X93593494Y-58537773D01*
X93593499Y-58537774D01*
X93798519Y-58555710D01*
X93805000Y-58556277D01*
X93811481Y-58555710D01*
X94016501Y-58537774D01*
X94016506Y-58537773D01*
X94022977Y-58537207D01*
X94029251Y-58535526D01*
X94029256Y-58535525D01*
X94228049Y-58482258D01*
X94234330Y-58480575D01*
X94432639Y-58388102D01*
X94611877Y-58262598D01*
X94766598Y-58107877D01*
X94892102Y-57928638D01*
X94984575Y-57730330D01*
X95041207Y-57518977D01*
X95060277Y-57301000D01*
X95041207Y-57083023D01*
X94984575Y-56871670D01*
X94980987Y-56863975D01*
X94980814Y-56862992D01*
X94979601Y-56859661D01*
X94980188Y-56859447D01*
X94967590Y-56788021D01*
X94979810Y-56742415D01*
X94979601Y-56742339D01*
X94980472Y-56739946D01*
X94980987Y-56738024D01*
X94984575Y-56730330D01*
X95041207Y-56518977D01*
X95060277Y-56301000D01*
X95041207Y-56083023D01*
X94984575Y-55871670D01*
X94892102Y-55673362D01*
X94766598Y-55494123D01*
X94611877Y-55339402D01*
X94432639Y-55213898D01*
X94234330Y-55121425D01*
X94228049Y-55119742D01*
X94029256Y-55066475D01*
X94029251Y-55066474D01*
X94022977Y-55064793D01*
X94016506Y-55064227D01*
X94016501Y-55064226D01*
X93811481Y-55046290D01*
X93805000Y-55045723D01*
X93798519Y-55046290D01*
X93593499Y-55064226D01*
X93593494Y-55064227D01*
X93587023Y-55064793D01*
X93580749Y-55066474D01*
X93580744Y-55066475D01*
X93381951Y-55119742D01*
X93375670Y-55121425D01*
X93177362Y-55213898D01*
X93172034Y-55217629D01*
X93172030Y-55217631D01*
X93066057Y-55291834D01*
X92998123Y-55339402D01*
X92843402Y-55494123D01*
X92717898Y-55673362D01*
X92625425Y-55871670D01*
X92568793Y-56083023D01*
X92549723Y-56301000D01*
X92568793Y-56518977D01*
X92625425Y-56730330D01*
X92629013Y-56738024D01*
X92629186Y-56739008D01*
X92630399Y-56742339D01*
X92629812Y-56742553D01*
X92642410Y-56813979D01*
X92630190Y-56859585D01*
X92630399Y-56859661D01*
X92629528Y-56862054D01*
X92629013Y-56863975D01*
X92625425Y-56871670D01*
X92568793Y-57083023D01*
X92549723Y-57301000D01*
X80006500Y-57301000D01*
X80006500Y-49909500D01*
X80026462Y-49835000D01*
X80081000Y-49780462D01*
X80155500Y-49760500D01*
X82554674Y-49760500D01*
X82627740Y-49745966D01*
X82710601Y-49690601D01*
X82765966Y-49607740D01*
X82780500Y-49534674D01*
X82780500Y-47135500D01*
X82800462Y-47061000D01*
X82855000Y-47006462D01*
X82929500Y-46986500D01*
X88858531Y-46986500D01*
X88933031Y-47006462D01*
G37*
%TD.AperFunction*%
%TD*%
M02*
